<svg xmlns="http://www.w3.org/2000/svg" width="302" height="80" viewBox="0 0 302 80">
  <path fill="#FFFFFF" fill-rule="evenodd" d="M51.489939,40.3701225 C55.8326173,52.3027754 49.9370877,65.9309388 38.0488983,70.2586938 C25.9607362,74.6586938 12.8714849,67.9631837 8.9365065,57.1509388 C7.16654163,52.2864489 9.27278757,46.4362449 14.3104741,44.6023674 C19.1494119,42.8411428 24.5258281,45.3109388 26.3027308,50.194204 C27.0883389,52.3525714 29.474547,53.4656326 31.6326227,52.6799185 C33.7902903,51.894204 34.902793,49.5080815 34.117593,47.3501225 L24.8735362,21.9484898 C23.3051768,17.639102 25.5346714,12.856653 29.8438849,11.2880816 L37.658339,8.44318366 C38.7357443,8.05093877 39.931501,8.60889797 40.323693,9.68604083 L51.489939,40.3701225 Z M34.8146417,0.627673471 L26.9993714,3.47216326 C18.3817605,6.60930612 13.9219551,16.1742041 17.0586741,24.7933878 L21.1724038,36.0958366 C17.9467173,35.4048163 14.5957416,35.6488978 11.4345362,36.7995102 C2.15783081,40.1762449 -2.23994216,50.7570612 1.12572541,60.0052246 C6.5772335,74.9864489 24.4033957,84.0766529 40.893412,78.074204 C57.0410253,72.1962449 65.2060443,53.7411428 59.304393,37.5252246 L48.138147,6.84114286 C46.1775957,1.45461225 40.2004443,-1.33314286 34.8146417,0.627673471 L34.8146417,0.627673471 Z M99.9232707,14.9204898 L103.86886,14.9204898 C104.800979,14.9204898 105.556387,15.676 105.556387,16.6082449 L105.556387,48.0923265 C105.556387,59.1596735 98.9634003,67.2927348 90.7996057,67.1637551 C89.558957,67.1441634 88.437068,67.0396735 87.4816867,66.9017142 C85.6125517,66.6315102 84.236411,65.0196735 84.236411,63.1306938 L84.236411,60.0825305 C84.236411,57.9751837 85.945976,56.2682449 88.05263,56.2719185 C93.5171977,56.2719185 93.1735707,50.0029388 93.1735707,46.6511022 L93.1735707,21.671102 C93.1735707,17.9425306 96.195203,14.9204898 99.9232707,14.9204898 L99.9232707,14.9204898 Z M152.679202,41.2031837 C152.679202,32.5427754 147.093018,28.1672653 141.039958,28.1672653 C134.988123,28.1672653 129.402348,32.5427754 129.402348,41.2031837 C129.402348,49.7705305 134.988123,54.2386938 141.039958,54.2386938 C147.093018,54.2386938 152.679202,49.8631837 152.679202,41.2031837 L152.679202,41.2031837 Z M165.062426,41.2031837 C165.062426,55.2644083 154.727088,65.5068572 141.039958,65.5068572 C127.352829,65.5068572 117.019531,55.2644083 117.019531,41.2031837 C117.019531,27.0484898 127.352829,16.899102 141.039958,16.899102 C154.727088,16.899102 165.062426,27.0484898 165.062426,41.2031837 L165.062426,41.2031837 Z M174.832616,57.3595102 L174.832616,25.046449 C174.832616,21.3182857 177.854248,18.2958367 181.582316,18.2958367 L184.970021,18.2958367 C185.901732,18.2958367 186.657548,19.0517551 186.657548,19.9835918 L186.657548,23.8823674 C189.17231,19.4121633 195.036416,16.9921633 200.063899,16.9921633 C206.302648,16.9921633 211.330948,19.6925714 213.658389,24.6284898 C217.289326,19.041551 222.131529,16.9921633 228.183364,16.9921633 C236.654872,16.9921633 244.755818,22.1129796 244.755818,34.4052246 L244.755818,62.4223674 C244.755818,63.3546123 244.000002,64.1101225 243.068291,64.1101225 L239.495305,64.1101225 C235.767645,64.1101225 232.745197,61.0880815 232.745197,57.3595102 L232.745197,36.9203265 C232.745197,31.9844083 230.323483,28.2599184 224.644659,28.2599184 C219.338845,28.2599184 216.173151,32.3570612 216.173151,37.2929797 L216.173151,62.4223674 C216.173151,63.3546123 215.417335,64.1101225 214.485216,64.1101225 L210.632675,64.1101225 C206.904608,64.1101225 203.882567,61.0880815 203.882567,57.3595102 L203.882567,36.9203265 C203.882567,31.9844083 201.367805,28.2599184 195.781621,28.2599184 C190.381535,28.2599184 187.215432,32.2648163 187.215432,37.2929797 L187.215432,62.4223674 C187.215432,63.3546123 186.460024,64.1101225 185.527905,64.1101225 L181.582316,64.1101225 C177.854248,64.1101225 174.832208,61.0880815 174.832616,57.3595102 L174.832616,57.3595102 Z M289.534909,41.2031837 C289.534909,32.5427754 283.948725,28.1672653 277.895258,28.1672653 C271.843831,28.1672653 266.258055,32.5427754 266.258055,41.2031837 C266.258055,49.7705305 271.843831,54.2386938 277.895258,54.2386938 C283.948725,54.2386938 289.534909,49.8631837 289.534909,41.2031837 L289.534909,41.2031837 Z M301.917725,41.2031837 C301.917725,55.2644083 291.582388,65.5068572 277.895258,65.5068572 C264.208536,65.5068572 253.874831,55.2644083 253.874831,41.2031837 C253.874831,27.0484898 264.208536,16.899102 277.895258,16.899102 C291.582388,16.899102 301.917725,27.048898 301.917725,41.2031837 L301.917725,41.2031837 Z"/>
</svg>
