<svg xmlns="http://www.w3.org/2000/svg" width="2100" height="1400" viewBox="0 0 2100 1400" style="background:#121212">
  <g fill="none" fill-rule="evenodd">
    <rect width="2100" height="1400" fill="#FF4926"/>
    <rect width="2100" height="1400" fill="#111111"/>
    <path fill="#FFFFFF" d="M1245.72178,660.19725 C1278.05645,661.851346 1279.06106,688.544395 1265.92244,693.75 C1251.23724,699.568128 1201.99768,697.016981 1201.32288,697.009078 C1204.99741,668.398293 1224.66341,660.170716 1245.72178,660.19725 L1245.72178,660.19725 Z M1292.05503,737.741622 C1262.96829,759.392783 1208.44007,766.684356 1200.98294,718.506684 C1290.17865,725.654864 1297.84177,702.284121 1299.27072,680.647638 C1300.12731,667.683023 1288.07658,636.037847 1244.7425,636.037847 C1213.07025,636.037847 1195.91266,650.088632 1186.62417,662.82348 C1175.54766,678.008987 1171.05481,696.577771 1171.05481,707.380205 C1171.05481,728.924104 1177.22932,746.489138 1189.44719,759.554805 C1212.97063,784.711182 1265.44912,786.446572 1299.01408,764.032721 C1302.32055,761.824248 1308.33746,756.704453 1308.33746,756.704453 L1292.05503,737.741622 Z M1412,756.434604 C1406.52675,751.101978 1399.70559,744.357443 1394.34546,738.751581 C1388.38989,748.19122 1380.60802,751.287711 1373.5229,751.287711 C1362.42501,751.287711 1357.03111,736.780214 1357.03111,723.940362 L1357.03111,660.328222 L1399.65156,660.328222 L1376.7714,637.539518 L1357.03111,637.506774 L1357.03111,621.690678 L1328.19538,592.823029 L1328.1194,637.506774 L1289.61585,637.506774 L1312.68061,660.328222 L1327.60725,660.328222 L1327.60725,723.648496 C1327.60725,757.198424 1343.52948,778.550944 1372.47553,778.550944 C1386.70148,778.550944 1403.31033,770.253365 1412,756.434604 L1412,756.434604 Z M803.503895,763.947475 C800.485024,756.817925 792.101522,740.51802 791.778474,739.298618 C785.467773,746.793424 778.567255,751.732003 771.907616,751.778295 C760.809157,751.855072 756.041097,739.579758 755.978626,723.866408 L755.978626,660.253703 L798.036271,660.253703 L775.156111,637.465563 L755.978626,637.43282 L755.978626,622.7458 L726.58009,592.749074 L726.503549,637.43282 L688,637.43282 L711.06476,660.253703 L725.991962,660.253703 L725.991962,723.573413 C725.991962,761.784166 741.331699,779.150483 770.859679,778.47586 C782.838361,778.476989 795.718089,773.639463 803.503895,763.947475 L803.503895,763.947475 Z M1065.79955,737.852272 C1047.80282,754.422026 1028.69512,750.546473 995.602354,751.476267 L995.597851,751.482477 L995.597851,751.476267 C995.522436,751.482477 995.452086,751.482477 995.37667,751.482477 L995.597851,751.255532 C995.973803,718.050537 991.791057,698.952782 1008.00989,680.62675 C1022.45871,664.289021 1046.92991,660.00079 1065.92899,672.144002 C1068.11717,673.542363 1071.91102,677.323074 1074.08343,680.933294 C1085.28488,699.691762 1081.43532,723.454295 1065.79955,737.852272 L1065.79955,737.852272 Z M1089.35113,658.156445 C1077.36513,644.469786 1059.27779,638.205672 1040.74697,638.205672 C1025.16635,638.205672 1008.74772,646.161142 996.233818,656.075558 L996.233818,638.023891 L967.868587,637.769285 L967.868587,824.277391 L994.610134,850 L994.610134,780.464728 C1027.17725,780.464728 1069.28498,780.464728 1087.7584,760.250881 C1099.97852,746.879234 1107.60506,729.872527 1107.60506,709.619727 C1107.60506,688.905135 1101.5206,671.750519 1089.35113,658.156445 L1089.35113,658.156445 Z M870.043998,753.116814 C861.311559,753.116814 852.749649,750.641315 845.285767,745.955085 C844.355455,745.334658 839.479899,740.839242 837.393029,737.374673 C825.981089,718.259981 829.598218,693.414664 846.000525,678.308757 C861.264847,664.254584 876.847151,664.246116 902.663451,664.232003 C907.658883,664.229744 912.793327,664.226357 918.334115,664.120224 C918.316668,669.773507 918.401651,674.998871 918.48382,680.084229 C918.898043,705.972247 919.149615,721.598659 905.394167,737.142083 C896.414658,747.293605 883.530427,753.116814 870.043998,753.116814 L870.043998,753.116814 Z M911.794916,638.124944 C908.598762,638.075829 905.118394,638.030101 901.537846,638.030101 C877.910284,638.030101 848.493176,639.902674 830.588187,654.497674 C818.850385,664.066593 810.13483,679.26452 806.048886,697.292476 C802.42444,713.277933 802.896631,729.696956 807.311251,741.210708 C812.48678,754.707682 822.723027,764.939933 837.735212,771.619547 C853.012478,778.416019 868.199132,779.150483 874.01907,779.150483 C887.950113,779.150483 901.198476,774.193275 913.491202,764.395154 L919.360103,758.659448 L919.059004,775.203234 L919.059004,778.484328 L922.331699,778.484328 L949.076622,778.484328 L949.563446,778.484328 L949.563446,775.203234 C949.563446,775.203234 949.643364,670.440791 949.60453,669.583823 L918.387581,638.108572 L911.794916,638.124944 Z M1154.285,580.157619 L1154.285,778.550944 L1123.93251,778.550944 L1123.93251,550 L1154.285,580.157619 Z M1400.98832,602.210693 C1398.37536,602.210693 1396.1295,601.258188 1394.25066,599.353149 C1392.37182,597.448111 1391.43242,595.175794 1391.43242,592.536133 C1391.43242,589.863268 1392.37804,587.582651 1394.26933,585.694214 C1396.16061,583.805777 1398.43758,582.861572 1401.1003,582.861572 C1403.76303,582.861572 1406.04,583.805777 1407.93128,585.694214 C1409.82256,587.582651 1410.76818,589.854967 1410.76818,592.51123 C1410.76818,595.217299 1409.82048,597.510367 1407.92506,599.390503 C1406.02963,601.270639 1403.7174,602.210693 1400.98832,602.210693 Z M1400.98832,600.828613 C1403.69252,600.828613 1405.84092,599.83668 1407.43357,597.852783 C1408.7359,596.234123 1409.38706,594.457773 1409.38706,592.523682 C1409.38706,590.606192 1408.7359,588.838143 1407.43357,587.219482 C1405.84092,585.235586 1403.72985,584.243652 1401.1003,584.243652 C1398.47076,584.243652 1396.35969,585.235586 1394.76703,587.219482 C1393.4647,588.838143 1392.81354,590.610342 1392.81354,592.536133 C1392.81354,594.793957 1393.61816,596.74047 1395.2274,598.375732 C1396.84495,600.010995 1398.76523,600.828613 1400.98832,600.828613 L1400.98832,600.828613 Z M1397.915,597.802979 L1397.915,587.343994 L1401.21228,587.343994 C1402.26576,587.343994 1403.05586,587.557737 1403.5826,587.985229 C1404.10933,588.412722 1404.3727,589.053951 1404.3727,589.908936 C1404.3727,590.539798 1404.21924,591.108396 1403.91232,591.614746 C1403.60541,592.121096 1403.14918,592.561033 1402.54364,592.93457 L1405.69161,597.802979 L1403.73813,597.802979 L1400.91366,593.445068 L1399.59475,593.445068 L1399.59475,597.802979 L1397.915,597.802979 Z M1399.48277,592.137695 L1399.96803,592.137695 C1400.88878,592.137695 1401.57934,591.965456 1402.03972,591.620972 C1402.50009,591.276488 1402.73028,590.759769 1402.73028,590.070801 C1402.73028,589.522946 1402.53742,589.112062 1402.1517,588.838135 C1401.76598,588.564208 1401.1874,588.427246 1400.41596,588.427246 L1399.48277,588.427246 L1399.48277,592.137695 Z"/>
  </g>
</svg>
