<svg xmlns="http://www.w3.org/2000/svg" width="4200" height="2800" viewBox="0 0 4200 2800" style="background:#121212">
  <g fill="none" fill-rule="evenodd">
    <rect width="4200" height="2800" fill="#FF4926"/>
    <rect width="4200" height="2800" fill="#111111"/>
    <path fill="#FFFFFF" d="M2491.44356,1320.3945 C2556.11291,1323.70269 2558.12211,1377.08879 2531.84488,1387.5 C2502.47448,1399.13626 2403.99535,1394.03396 2402.64575,1394.01816 C2409.99483,1336.79659 2449.32682,1320.34143 2491.44356,1320.3945 L2491.44356,1320.3945 Z M2584.11007,1475.48324 C2525.93658,1518.78557 2416.88015,1533.36871 2401.96589,1437.01337 C2580.3573,1451.30973 2595.68353,1404.56824 2598.54144,1361.29528 C2600.25461,1335.36605 2576.15317,1272.07569 2489.48501,1272.07569 C2426.1405,1272.07569 2391.82532,1300.17726 2373.24835,1325.64696 C2351.09533,1356.01797 2342.10963,1393.15554 2342.10963,1414.76041 C2342.10963,1457.84821 2354.45863,1492.97828 2378.89438,1519.10961 C2425.94126,1569.42236 2530.89824,1572.89314 2598.02816,1528.06544 C2604.64109,1523.6485 2616.67493,1513.40891 2616.67493,1513.40891 L2584.11007,1475.48324 Z M2824,1512.86921 C2813.0535,1502.20396 2799.41117,1488.71489 2788.69092,1477.50316 C2776.77977,1496.38244 2761.21604,1502.57542 2747.0458,1502.57542 C2724.85001,1502.57542 2714.06222,1473.56043 2714.06222,1447.88072 L2714.06222,1320.65644 L2799.30311,1320.65644 L2753.54279,1275.07904 L2714.06222,1275.01355 L2714.06222,1243.38136 L2656.39075,1185.64606 L2656.2388,1275.01355 L2579.2317,1275.01355 L2625.36122,1320.65644 L2655.2145,1320.65644 L2655.2145,1447.29699 C2655.2145,1514.39685 2687.05897,1557.10189 2744.95105,1557.10189 C2773.40296,1557.10189 2806.62067,1540.50673 2824,1512.86921 L2824,1512.86921 Z M1607.00779,1527.89495 C1600.97005,1513.63585 1584.20304,1481.03604 1583.55695,1478.59724 C1570.93555,1493.58685 1557.13451,1503.46401 1543.81523,1503.55659 C1521.61831,1503.71014 1512.08219,1479.15952 1511.95725,1447.73282 L1511.95725,1320.50741 L1596.07254,1320.50741 L1550.31222,1274.93113 L1511.95725,1274.86564 L1511.95725,1245.4916 L1453.16018,1185.49815 L1453.0071,1274.86564 L1376,1274.86564 L1422.12952,1320.50741 L1451.98392,1320.50741 L1451.98392,1447.14683 C1451.98392,1523.56833 1482.6634,1558.30097 1541.71936,1556.95172 C1565.67672,1556.95398 1591.43618,1547.27893 1607.00779,1527.89495 L1607.00779,1527.89495 Z M2131.59909,1475.70454 C2095.60564,1508.84405 2057.39025,1501.09295 1991.20471,1502.95253 L1991.1957,1502.96495 L1991.1957,1502.95253 C1991.04487,1502.96495 1990.90417,1502.96495 1990.75334,1502.96495 L1991.1957,1502.51106 C1991.94761,1436.10107 1983.58211,1397.90556 2016.01978,1361.2535 C2044.91742,1328.57804 2093.85983,1320.00158 2131.85798,1344.288 C2136.23433,1347.08473 2143.82203,1354.64615 2148.16686,1361.86659 C2170.56977,1399.38352 2162.87063,1446.90859 2131.59909,1475.70454 L2131.59909,1475.70454 Z M2178.70226,1316.31289 C2154.73026,1288.93957 2118.55559,1276.41134 2081.49394,1276.41134 C2050.33271,1276.41134 2017.49545,1292.32228 1992.46764,1312.15112 L1992.46764,1276.04778 L1935.73717,1275.53857 L1935.73717,1648.55478 L1989.22027,1700 L1989.22027,1560.92946 C2054.35449,1560.92946 2138.56996,1560.92946 2175.5168,1520.50176 C2199.95705,1493.75847 2215.21011,1459.74505 2215.21011,1419.23945 C2215.21011,1377.81027 2203.0412,1343.50104 2178.70226,1316.31289 L2178.70226,1316.31289 Z M1740.088,1506.23363 C1722.62312,1506.23363 1705.4993,1501.28263 1690.57153,1491.91017 C1688.71091,1490.66932 1678.9598,1481.67848 1674.78606,1474.74935 C1651.96218,1436.51996 1659.19644,1386.82933 1692.00105,1356.61751 C1722.52969,1328.50917 1753.6943,1328.49223 1805.3269,1328.46401 C1815.31777,1328.45949 1825.58665,1328.45271 1836.66823,1328.24045 C1836.63334,1339.54701 1836.8033,1349.99774 1836.96764,1360.16846 C1837.79609,1411.94449 1838.29923,1443.19732 1810.78833,1474.28417 C1792.82932,1494.58721 1767.06085,1506.23363 1740.088,1506.23363 L1740.088,1506.23363 Z M1823.58983,1276.24989 C1817.19752,1276.15166 1810.23679,1276.0602 1803.07569,1276.0602 C1755.82057,1276.0602 1696.98635,1279.80535 1661.17637,1308.99535 C1637.70077,1328.13319 1620.26966,1358.52904 1612.09777,1394.58495 C1604.84888,1426.55587 1605.79326,1459.39391 1614.6225,1482.42142 C1624.97356,1509.41536 1645.44605,1529.87987 1675.47042,1543.23909 C1706.02496,1556.83204 1736.39826,1558.30097 1748.03814,1558.30097 C1775.90023,1558.30097 1802.39695,1548.38655 1826.9824,1528.79031 L1838.72021,1517.3189 L1838.11801,1550.40647 L1838.11801,1556.96866 L1844.6634,1556.96866 L1898.15324,1556.96866 L1899.12689,1556.96866 L1899.12689,1550.40647 C1899.12689,1550.40647 1899.28673,1340.88158 1899.20906,1339.16765 L1836.77516,1276.21714 L1823.58983,1276.24989 Z M2308.56999,1160.31524 L2308.56999,1557.10189 L2247.86502,1557.10189 L2247.86502,1100 L2308.56999,1160.31524 Z M2801.97664,1204.42139 C2796.75073,1204.42139 2792.259,1202.51638 2788.50132,1198.7063 C2784.74364,1194.89622 2782.86483,1190.35159 2782.86483,1185.07227 C2782.86483,1179.72654 2784.75609,1175.1653 2788.53865,1171.38843 C2792.32121,1167.61155 2796.87515,1165.72314 2802.2006,1165.72314 C2807.52605,1165.72314 2812.07999,1167.61155 2815.86255,1171.38843 C2819.64512,1175.1653 2821.53637,1179.70993 2821.53637,1185.02246 C2821.53637,1190.4346 2819.64097,1195.02073 2815.85011,1198.78101 C2812.05925,1202.54128 2807.43481,1204.42139 2801.97664,1204.42139 Z M2801.97664,1201.65723 C2807.38504,1201.65723 2811.68183,1199.67336 2814.86715,1195.70557 C2817.47181,1192.46825 2818.77412,1188.91555 2818.77412,1185.04736 C2818.77412,1181.21238 2817.47181,1177.67629 2814.86715,1174.43896 C2811.68183,1170.47117 2807.45969,1168.4873 2802.2006,1168.4873 C2796.94151,1168.4873 2792.71937,1170.47117 2789.53406,1174.43896 C2786.9294,1177.67629 2785.62709,1181.22068 2785.62709,1185.07227 C2785.62709,1189.58791 2787.23631,1193.48094 2790.45481,1196.75146 C2793.68989,1200.02199 2797.53046,1201.65723 2801.97664,1201.65723 L2801.97664,1201.65723 Z M2795.83,1195.60596 L2795.83,1174.68799 L2802.42457,1174.68799 C2804.53152,1174.68799 2806.11171,1175.11547 2807.16519,1175.97046 C2808.21867,1176.82544 2808.7454,1178.1079 2808.7454,1179.81787 C2808.7454,1181.0796 2808.43848,1182.21679 2807.82465,1183.22949 C2807.21081,1184.24219 2806.29836,1185.12207 2805.08728,1185.86914 L2811.38322,1195.60596 L2807.47626,1195.60596 L2801.82732,1186.89014 L2799.1895,1186.89014 L2799.1895,1195.60596 L2795.83,1195.60596 Z M2798.96553,1184.27539 L2799.93605,1184.27539 C2801.77756,1184.27539 2803.15868,1183.93091 2804.07943,1183.24194 C2805.00019,1182.55298 2805.46056,1181.51954 2805.46056,1180.1416 C2805.46056,1179.04589 2805.07484,1178.22412 2804.3034,1177.67627 C2803.53195,1177.12842 2802.37481,1176.85449 2800.83192,1176.85449 L2798.96553,1176.85449 L2798.96553,1184.27539 Z"/>
  </g>
</svg>
