<svg xmlns="http://www.w3.org/2000/svg" width="375" height="162" viewBox="0 0 375 162">
  <g fill="none" fill-rule="evenodd">
    <rect width="375" height="162" fill="#222222" rx="2"/>
    <rect width="42" height="42" x="24" y="85" fill="#FFFFFF" fill-opacity=".1" rx="4.468"/>
    <rect width="375" height="64" fill="none"/>
    <rect width="375" height="64" fill="none"/>
    <g transform="translate(24)">
      <rect width="93" height="64" fill="none"/>
      <g fill="#FFFFFF" transform="translate(10 8)">
        <text font-family="SFUIText-Light, SF UI Text" font-size="22" font-weight="300">
          <tspan x="12.723" y="21">60</tspan> <tspan x="40.33" y="21" font-family="SFUIText-Regular, SF UI Text" font-size="10" font-weight="normal" letter-spacing=".5">FPS</tspan>
        </text>
        <text font-family="SFUIText-Bold, SF UI Text" font-size="12" font-weight="bold" letter-spacing="2">
          <tspan x=".338" y="39">HD MODE</tspan>
        </text>
      </g>
    </g>
    <g transform="translate(141)">
      <rect width="93" height="64" fill="none"/>
      <g fill="#FFFFFF" transform="translate(8 8)">
        <text font-family="SFUIText-Light, SF UI Text" font-size="22" font-weight="300">
          <tspan x="10.27" y="21">120</tspan> <tspan x="46.783" y="21" font-family="SFUIText-Regular, SF UI Text" font-size="10" font-weight="normal" letter-spacing=".5">FPS</tspan>
        </text>
        <text font-family="SFUIText-Bold, SF UI Text" font-size="12" font-weight="bold" letter-spacing="2">
          <tspan x=".524" y="39">SLOW-MO</tspan>
        </text>
      </g>
    </g>
    <g transform="translate(253)">
      <rect width="93" height="64" x="5" fill="none"/>
      <g fill="#FFFFFF" transform="translate(0 8)">
        <text font-family="SFUIText-Light, SF UI Text" font-size="22" font-weight="300">
          <tspan x="21.277" y="21">240</tspan> <tspan x="61.775" y="21" font-family="SFUIText-Regular, SF UI Text" font-size="10" font-weight="normal" letter-spacing=".5">FPS</tspan>
        </text>
        <text font-family="SFUIText-Bold, SF UI Text" font-size="12" font-weight="bold" letter-spacing="2">
          <tspan x=".511" y="39">ULTRA-SLOW</tspan>
        </text>
      </g>
    </g>
    <g transform="translate(156 74)">
      <path stroke="#FFFFFF" stroke-width="6" d="M32,61 C48.0162577,61 61,48.0162577 61,32 C61,15.9837423 48.0162577,3 32,3 C15.9837423,3 3,15.9837423 3,32 C3,48.0162577 15.9837423,61 32,61 Z" stroke-dasharray="1.036 1.036"/>
      <path fill="#FF1A1A" d="M32,56 C45.254834,56 56,45.254834 56,32 C56,18.745166 45.254834,8 32,8 C18.745166,8 8,18.745166 8,32 C8,45.254834 18.745166,56 32,56 Z"/>
    </g>
    <g transform="translate(244 85)">
      <rect width="42" height="42" fill="none"/>
      <path stroke="#FFFFFF" stroke-width="2.313" d="M23.6769219,7.625 L13.6377537,21.622591 C13.1710697,22.2732875 13.4324335,22.9166141 14.2197206,23.0591742 L20.0661503,24.1178319 C20.4573475,24.188669 20.7356587,24.574692 20.6901788,24.9596966 L19.3232522,36.53125 L29.3624204,22.533659 C29.8291044,21.8829625 29.5671551,21.2491915 28.7890628,21.1200376 L22.2126452,20.0284322 C21.8191102,19.9631102 21.5560843,19.594131 21.626532,19.1965534 L23.6769219,7.625 Z" stroke-linecap="round" stroke-linejoin="round"/>
    </g>
    <g transform="translate(90 85)">
      <rect width="42" height="42" fill="none"/>
      <g stroke="#FFFFFF" stroke-width="2" transform="translate(9 9)" stroke-linecap="round" stroke-linejoin="round">
        <rect width="12.5" height="12.5" x="10.417" y="2.083" rx="2.083"/>
        <rect width="12.5" height="12.5" x="6.25" y="6.25" rx="2.083" opacity=".6"/>
        <rect width="12.5" height="12.5" x="2.083" y="10.417" rx="2.083" opacity=".3"/>
      </g>
    </g>
    <g transform="translate(309 85)">
      <rect width="42" height="42" fill="none"/>
      <g stroke="#FFFFFF" stroke-width="2.24" transform="translate(7 10)" stroke-linecap="round" stroke-linejoin="round">
        <path d="M20.610625,4.73515626 L18.589375,0.764843743 L18.589375,0.764843743 C18.3504527,0.295532047 17.8683749,1.67961679e-15 17.3417466,1.77635684e-15 L10.6582534,0 L10.6582534,1.11022302e-15 C10.1316251,1.20696307e-15 9.64954732,0.295532047 9.410625,0.764843743 L7.389375,4.73515626 L7.389375,4.73515626 C7.15045268,5.20446795 6.66837491,5.5 6.14174663,5.5 L2.8,5.5 L2.8,5.5 C1.2536027,5.5 -1.8937905e-16,6.7536027 0,8.3 L0,20.6 L0,20.6 C9.46895252e-17,21.3731986 0.62680135,22 1.4,22 L26.6,22 L26.6,22 C27.3731986,22 28,21.3731986 28,20.6 L28,8.3 L28,8.3 C28,6.7536027 26.7463973,5.5 25.2,5.5 L21.8582534,5.5 L21.8582534,5.5 C21.3316251,5.5 20.8495473,5.20446795 20.610625,4.73515626 Z"/>
        <g transform="translate(6.72 7.15)">
          <path d="M0 4.52928143L1.72642105 6.99697429 3.71122807 4.71573143M1.71929825 6.96562429C.905578947 4.06327429 2.94933333 1.23163857 5.7785614.589788571 7.73340351.145938571 9.69094737.81136 10.9349825 2.15964571M14.5412842 7.08623929L12.8158456 4.61854643 10.8298105 6.900025M12.81 4.63794571C13.3267719 7.25838143 11.3844561 9.82861 8.76129825 10.4235529 6.9317193 10.8393529 5.09698246 10.2816529 3.84950877 9.10166714"/>
        </g>
      </g>
    </g>
  </g>
</svg>
