<svg xmlns="http://www.w3.org/2000/svg" width="338" height="140" viewBox="0 0 338 140">
  <path fill="#FFFFFF" fill-rule="evenodd" d="M260.372875,51.4253831 C275.468345,52.1972947 275.937344,64.6540511 269.80357,67.0833333 C262.947773,69.7984599 239.960242,68.6079246 239.645211,68.6042363 C241.360671,55.2525367 250.541758,51.4130009 260.372875,51.4253831 L260.372875,51.4253831 Z M282.003593,87.6127571 C268.424423,97.716632 242.96788,101.119366 239.486513,78.6364526 C281.127602,81.9722699 284.705134,71.065923 285.372242,60.9688977 C285.77214,54.9187442 280.146251,40.1509951 259.915699,40.1509951 C245.12948,40.1509951 237.119446,46.7080285 232.783108,52.6509575 C227.61203,59.7375275 225.51454,68.4029597 225.51454,73.4440957 C225.51454,83.497915 228.397111,91.6949312 234.101035,97.7922425 C245.082974,109.531885 269.582601,110.341734 285.252431,99.8819363 C286.796056,98.8513157 289.605059,96.4620781 289.605059,96.4620781 L282.003593,87.6127571 Z M338,96.3361485 C335.444808,93.8475898 332.260343,90.70014 329.757962,88.084071 C326.977598,92.4892361 323.344628,93.9342652 320.036935,93.9342652 C314.855873,93.9342652 312.337728,87.1640999 312.337728,81.172169 L312.337728,51.4865038 L332.235119,51.4865038 L321.553497,40.8517749 L312.337728,40.8364947 L312.337728,33.4556499 L298.875742,19.98408 L298.840271,40.8364947 L280.864858,40.8364947 L291.63266,51.4865038 L298.601174,51.4865038 L298.601174,81.0359648 C298.601174,96.6925978 306.034483,106.657107 319.547967,106.657107 C326.189364,106.657107 333.943222,102.784904 338,96.3361485 L338,96.3361485 Z M53.9230889,99.8421552 C52.5137265,96.5150318 48.5998818,88.9084094 48.4490664,88.3393551 C45.5029104,91.8369313 42.281398,94.1416012 39.1723403,94.1632042 C33.9910154,94.1990335 31.7650425,88.4705537 31.7358779,81.1376569 L31.7358779,51.4517282 L51.3705244,51.4517282 L40.6889025,40.8172628 L31.7358779,40.8019827 L31.7358779,33.9480399 L18.0111472,19.9495679 L17.9754139,40.8019827 L0,40.8019827 L10.7678021,51.4517282 L17.736579,51.4517282 L17.736579,81.0009258 C17.736579,98.8326107 24.8979478,106.936892 38.6831097,106.622068 C44.2753673,106.622595 50.2882791,104.365083 53.9230889,99.8421552 L53.9230889,99.8421552 Z M176.376031,87.6643935 C167.974245,95.3969455 159.0538,93.588354 143.604414,94.0222579 L143.602312,94.0251558 L143.602312,94.0222579 C143.567104,94.0251558 143.534261,94.0251558 143.499053,94.0251558 L143.602312,93.9192485 C143.777825,78.4235841 141.825107,69.5112983 149.396883,60.95915 C156.142327,53.3348764 167.566728,51.3337022 176.436462,57.0005344 C177.458014,57.6531027 179.229176,59.4174344 180.24337,61.102204 C185.472777,69.8561557 183.675604,80.9453377 176.376031,87.6643935 L176.376031,87.6643935 Z M187.371107,50.4730076 C181.775434,44.0859001 173.331346,41.1626472 164.680215,41.1626472 C157.406391,41.1626472 149.741341,44.8751995 143.899213,49.501927 L143.899213,41.0778159 L130.656882,40.9589995 L130.656882,127.996116 L143.141195,140 L143.141195,107.550206 C158.345178,107.550206 178.003209,107.550206 186.62754,98.1170777 C192.332515,91.8769759 195.892968,83.9405128 195.892968,74.489206 C195.892968,64.8223964 193.052435,56.816909 187.371107,50.4730076 L187.371107,50.4730076 Z M84.9873914,94.7878466 C80.910645,94.7878466 76.9135104,93.6326137 73.4289905,91.4457065 C72.9946736,91.1561738 70.7185165,89.058313 69.7442593,87.4415139 C64.4165856,78.5213245 66.1052456,66.9268434 73.7626763,59.87742 C80.8888372,53.3188059 88.163449,53.3148541 100.21581,53.3082678 C102.547931,53.307214 104.944951,53.3056333 107.531672,53.2561045 C107.523527,55.8943034 107.563202,58.3328064 107.601562,60.7059736 C107.794943,72.7870487 107.912389,80.079374 101.490647,87.332972 C97.2985557,92.070349 91.2835419,94.7878466 84.9873914,94.7878466 L84.9873914,94.7878466 Z M104.478842,41.1249737 C102.986715,41.1020534 101.361902,41.0807139 99.6903204,41.0807139 C88.6597736,41.0807139 74.9263724,41.954581 66.5674134,48.7655812 C61.0876106,53.2310767 57.0187466,60.3234426 55.1112203,68.7364887 C53.4191446,76.1963689 53.6395874,83.8585795 55.7005566,89.2316638 C58.1167566,95.5302517 62.8955567,100.305302 69.904008,103.422455 C77.0362121,106.594142 84.1261143,106.936892 86.843157,106.936892 C93.3468758,106.936892 99.5318854,104.623528 105.270754,100.051072 L108.010656,97.3744091 L107.870088,105.094842 L107.870088,106.62602 L109.397948,106.62602 L121.883837,106.62602 L122.111111,106.62602 L122.111111,105.094842 C122.111111,105.094842 122.148421,56.2057026 122.130292,55.8057839 L107.556633,41.1173336 L104.478842,41.1249737 Z M217.685537,14.0735555 L217.685537,106.657107 L203.515454,106.657107 L203.515454,0 L217.685537,14.0735555 Z M332.859187,24.3649902 C331.639327,24.3649902 330.590844,23.9204878 329.713706,23.0314697 C328.836569,22.1424516 328.398007,21.0820374 328.398007,19.8501953 C328.398007,18.6028583 328.839473,17.5385705 329.72242,16.6572998 C330.605366,15.7760291 331.668371,15.3354004 332.911466,15.3354004 C334.154562,15.3354004 335.217567,15.7760291 336.100513,16.6572998 C336.983459,17.5385705 337.424926,18.5989847 337.424926,19.8385742 C337.424926,21.1014061 336.982491,22.1715044 336.097609,23.0489014 C335.212726,23.9262983 334.133263,24.3649902 332.859187,24.3649902 Z M332.859187,23.7200195 C334.121645,23.7200195 335.124626,23.2571173 335.86816,22.3312988 C336.476154,21.575924 336.780146,20.7469609 336.780146,19.8443848 C336.780146,18.9495561 336.476154,18.1244667 335.86816,17.3690918 C335.124626,16.4432734 334.139072,15.9803711 332.911466,15.9803711 C331.683861,15.9803711 330.698307,16.4432734 329.954773,17.3690918 C329.346779,18.1244667 329.042787,18.9514929 329.042787,19.8501953 C329.042787,20.9038464 329.418421,21.8122195 330.169699,22.5753418 C330.924851,23.3384641 331.821338,23.7200195 332.859187,23.7200195 L332.859187,23.7200195 Z M331.424406,22.3080566 L331.424406,17.4271973 L332.963746,17.4271973 C333.455562,17.4271973 333.824419,17.526944 334.070328,17.7264404 C334.316236,17.9259369 334.439188,18.225177 334.439188,18.6241699 C334.439188,18.9185724 334.367547,19.1839181 334.224262,19.4202148 C334.080976,19.6565116 333.867988,19.8618155 333.585291,20.0361328 L335.054924,22.3080566 L334.142938,22.3080566 L332.824334,20.2743652 L332.208598,20.2743652 L332.208598,22.3080566 L331.424406,22.3080566 Z M332.156319,19.6642578 L332.382863,19.6642578 C332.812718,19.6642578 333.135105,19.5838794 333.350033,19.4231201 C333.564961,19.2623608 333.672423,19.0212256 333.672423,18.699707 C333.672423,18.4440417 333.582387,18.2522956 333.402312,18.1244629 C333.222238,17.9966302 332.95213,17.9327148 332.591981,17.9327148 L332.156319,17.9327148 L332.156319,19.6642578 Z"/>
</svg>
