<svg xmlns="http://www.w3.org/2000/svg" width="2100" height="1400" viewBox="0 0 2100 1400" style="background:#000">
  <g fill="none" fill-rule="evenodd">
    <rect width="2100" height="1400" fill="#36CBD9"/>
    <rect width="2100" height="1400" fill="#111111"/>
    <g transform="translate(225 575)">
      <path fill="#FFFFFF" d="M1173.85058,2.19128127 C1211.10404,-5.12916132 1247.61408,6.1653918 1273.45918,31.9807334 C1295.69647,54.1822547 1307.17043,84.2610307 1305.28452,115.911982 C1303.65007,143.239451 1291.0883,168.776387 1271.70447,188.133799 L1219.34736,240.425014 C1212.95715,246.806518 1204.5553,250 1196.15346,250 C1187.75708,250 1179.35523,246.806518 1172.96502,240.425014 L1135.4929,203.003959 C1133.361,200.869513 1133.361,197.414002 1135.4929,195.285014 L1161.53479,169.278609 C1163.21844,167.597255 1165.76031,167.264259 1167.90314,168.285082 C1178.17996,173.203589 1189.92724,175.545476 1202.33048,174.404557 C1232.57057,171.620496 1257.47545,147.683031 1261.2254,117.587878 C1266.5442,74.9044024 1230.70106,39.011852 1187.9812,44.1650942 C1158.57201,47.7188661 1134.82053,71.4052199 1131.09792,100.752498 C1129.26668,115.158648 1132.21306,128.724122 1138.46662,140.24795 C1139.64736,142.426069 1139.36857,145.095492 1137.61386,146.847813 L1113.78039,170.648804 C1111.31504,173.110787 1107.24805,172.641318 1105.30201,169.753537 C1093.33061,151.962842 1086.8256,131.093303 1086.8256,109.181106 C1086.8256,72.6826126 1104.64058,38.913591 1136.17073,17.7820226 C1147.54629,10.1613381 1160.41418,4.8334097 1173.85058,2.19128127 Z M500.431998,222.452454 C500.431998,231.940097 492.773582,239.593535 482.043053,239.593535 C471.317991,239.593535 463.659574,232.245798 463.659574,222.452454 L463.659574,37.6071842 C463.659574,27.8138404 471.317991,20.471562 482.043053,20.471562 C492.773582,20.471562 500.431998,28.1195412 500.431998,37.6071842 L500.431998,222.452454 Z M577.652447,222.452454 C577.652447,231.940097 569.994031,239.593535 559.263502,239.593535 C548.53844,239.593535 540.880024,232.245798 540.880024,222.452454 L540.880024,104.020685 C540.880024,94.2273413 548.53844,86.8796039 559.263502,86.8796039 C569.994031,86.8796039 577.652447,94.5275831 577.652447,104.020685 L577.652447,222.452454 Z M580.407509,40.975352 C580.407509,53.2197612 570.600801,61.7848428 559.263502,61.7848428 C547.313968,61.7848428 538.119495,53.2197612 538.119495,40.975352 C538.119495,28.7364018 547.313968,20.1658612 559.263502,20.1658612 C570.600801,20.1658612 580.407509,28.7364018 580.407509,40.975352 Z M654.87071,181.445966 L654.87071,222.453546 C654.87071,231.941189 647.212294,239.589168 636.481765,239.589168 C625.756702,239.589168 618.098286,232.24689 618.098286,222.453546 L618.098286,37.608276 C618.098286,27.8149322 625.756702,20.4726538 636.481765,20.4726538 C647.212294,20.4726538 654.87071,28.120633 654.87071,37.608276 L654.87071,138.293021 C654.87071,140.432927 656.095182,141.661189 658.243474,141.661189 C659.774064,141.661189 661.610772,140.432927 663.759064,137.68162 L699.613134,94.5286749 C704.21037,89.3263022 709.113724,86.5749949 714.323196,86.5749949 C724.129905,86.5749949 731.788321,94.2229741 731.788321,104.016318 C731.788321,107.995887 730.257731,111.669756 727.502669,115.032465 L688.888071,159.719373 L729.645495,212.043341 C732.094439,215.416968 733.324377,218.779677 733.324377,222.753788 C733.324377,231.630029 725.660495,239.589168 716.159904,239.589168 C709.72596,239.589168 704.21037,236.53216 699.613134,230.712927 L664.3713,182.363068 C662.228474,179.606302 660.080182,178.077798 658.549592,178.077798 C656.095182,178.077798 654.87071,179.300601 654.87071,181.445966 Z M755.983121,186.03912 L755.983121,140.43511 C755.983121,124.827992 761.810296,111.972181 773.147594,101.261735 C784.791011,90.551289 798.582719,85.0432155 814.211136,85.0432155 C829.533435,85.0432155 842.712907,90.551289 854.050206,101.567436 C865.387504,112.283341 871.214679,125.439394 871.214679,140.43511 L871.214679,156.042229 C871.214679,165.53533 862.326324,175.323215 852.208031,175.323215 L792.761011,175.323215 L792.761011,185.727961 C792.761011,198.889472 803.792192,207.765714 815.12949,207.765714 C822.181136,207.765714 829.533435,205.620349 837.197317,201.64078 C842.100671,198.889472 846.080205,197.66121 848.840733,197.66121 C858.341324,197.66121 864.775268,205.620349 864.775268,214.491132 C864.775268,221.227467 861.096386,226.741 853.43797,231.326512 C842.100671,238.062848 829.533435,241.425556 815.12949,241.425556 C799.501073,241.425556 785.709365,236.223184 773.75983,225.512737 C761.810296,214.802291 755.983121,201.64078 755.983121,186.03912 Z M792.761011,148.394249 L835.661261,148.394249 L835.661261,140.43511 C835.661261,128.496402 825.553901,118.708517 814.211136,118.708517 C802.873838,118.708517 792.761011,128.19616 792.761011,140.43511 L792.761011,148.394249 Z M941.07135,222.452454 C941.07135,231.940097 933.407468,239.593535 922.682405,239.593535 C911.957343,239.593535 904.29346,232.245798 904.29346,222.452454 L904.29346,37.6071842 C904.29346,27.8138404 911.957343,20.471562 922.682405,20.471562 C933.407468,20.471562 941.07135,28.1195412 941.07135,37.6071842 L941.07135,222.452454 Z M1018.28961,222.452454 C1018.28961,231.940097 1010.62573,239.593535 999.900668,239.593535 C989.175606,239.593535 981.511723,232.245798 981.511723,222.452454 L981.511723,104.020685 C981.511723,94.2273413 989.175606,86.8796039 999.900668,86.8796039 C1010.62573,86.8796039 1018.28961,94.5275831 1018.28961,104.020685 L1018.28961,222.452454 Z M1021.04467,40.975352 C1021.04467,53.2197612 1011.23797,61.7848428 999.900668,61.7848428 C987.945667,61.7848428 978.756661,53.2197612 978.756661,40.975352 C978.756661,28.7364018 987.945667,20.1658612 999.900668,20.1658612 C1011.23797,20.1658612 1021.04467,28.7364018 1021.04467,40.975352 Z"/>
      <g stroke="#FFFFFF" stroke-width="3" opacity=".5" transform="translate(0 15.625)" stroke-dasharray="19.668 19.668">
        <path d="M0 228L1650 228M0 1.5L1650 1.5"/>
      </g>
    </g>
  </g>
</svg>
