<svg xmlns="http://www.w3.org/2000/svg" width="4200" height="2800" viewBox="0 0 4200 2800" style="background:#000">
  <g fill="none" fill-rule="evenodd" transform="translate(450 1150)">
    <path fill="#FFFFFF" d="M2347.70115,4.38256255 C2422.20808,-10.2583226 2495.22816,12.3307836 2546.91836,63.9614668 C2591.39293,108.364509 2614.34085,168.522061 2610.56904,231.823965 C2607.30014,286.478902 2582.1766,337.552773 2543.40894,376.267597 L2438.69472,480.850028 C2425.9143,493.613037 2409.11061,500 2392.30691,500 C2375.51416,500 2358.71047,493.613037 2345.93004,480.850028 L2270.9858,406.007919 C2266.72201,401.739026 2266.72201,394.828004 2270.9858,390.570028 L2323.06959,338.557219 C2326.43688,335.19451 2331.52063,334.528519 2335.80628,336.570164 C2356.35992,346.407179 2379.85447,351.090952 2404.66096,348.809114 C2465.14113,343.240992 2514.9509,295.366062 2522.45079,235.175756 C2533.08839,149.808805 2461.40212,78.023704 2375.9624,88.3301884 C2317.14402,95.4377322 2269.64106,142.81044 2262.19584,201.504995 C2258.53335,230.317297 2264.42612,257.448243 2276.93323,280.495901 C2279.29471,284.852137 2278.73714,290.190984 2275.22772,293.695625 L2227.56077,341.297608 C2222.63009,346.221575 2214.49609,345.282637 2210.60402,339.507075 C2186.66122,303.925684 2173.65121,262.186606 2173.65121,218.362211 C2173.65121,145.365225 2209.28116,77.827182 2272.34146,35.5640451 C2295.09259,20.3226762 2320.82836,9.6668194 2347.70115,4.38256255 Z M1000.864,444.904908 C1000.864,463.880194 985.547164,479.18707 964.086106,479.18707 C942.635981,479.18707 927.319149,464.491596 927.319149,444.904908 L927.319149,75.2143683 C927.319149,55.6276808 942.635981,40.943124 964.086106,40.943124 C985.547164,40.943124 1000.864,56.2390824 1000.864,75.2143683 L1000.864,444.904908 Z M1155.30489,444.904908 C1155.30489,463.880194 1139.98806,479.18707 1118.527,479.18707 C1097.07688,479.18707 1081.76005,464.491596 1081.76005,444.904908 L1081.76005,208.04137 C1081.76005,188.454683 1097.07688,173.759208 1118.527,173.759208 C1139.98806,173.759208 1155.30489,189.055166 1155.30489,208.04137 L1155.30489,444.904908 Z M1160.81502,81.950704 C1160.81502,106.439522 1141.2016,123.569686 1118.527,123.569686 C1094.62794,123.569686 1076.23899,106.439522 1076.23899,81.950704 C1076.23899,57.4728035 1094.62794,40.3317224 1118.527,40.3317224 C1141.2016,40.3317224 1160.81502,57.4728035 1160.81502,81.950704 Z M1309.74142,362.891932 L1309.74142,444.907092 C1309.74142,463.882378 1294.42459,479.178336 1272.96353,479.178336 C1251.5134,479.178336 1236.19657,464.493779 1236.19657,444.907092 L1236.19657,75.2165519 C1236.19657,55.6298643 1251.5134,40.9453076 1272.96353,40.9453076 C1294.42459,40.9453076 1309.74142,56.241266 1309.74142,75.2165519 L1309.74142,276.586042 C1309.74142,280.865854 1312.19036,283.322378 1316.48695,283.322378 C1319.54813,283.322378 1323.22154,280.865854 1327.51813,275.363239 L1399.22627,189.05735 C1408.42074,178.652604 1418.22745,173.14999 1428.64639,173.14999 C1448.25981,173.14999 1463.57664,188.445948 1463.57664,208.032636 C1463.57664,215.991775 1460.51546,223.339512 1455.00534,230.06493 L1377.77614,319.438745 L1459.29099,424.086683 C1464.18888,430.833936 1466.64875,437.559354 1466.64875,445.507575 C1466.64875,463.260058 1451.32099,479.178336 1432.31981,479.178336 C1419.45192,479.178336 1408.42074,473.06432 1399.22627,461.425853 L1328.7426,364.726136 C1324.45695,359.212604 1320.16036,356.155596 1317.09918,356.155596 C1312.19036,356.155596 1309.74142,358.601202 1309.74142,362.891932 Z M1511.96624,372.078241 L1511.96624,280.870221 C1511.96624,249.655985 1523.62059,223.944363 1546.29519,202.52347 C1569.58202,181.102578 1597.16544,170.086431 1628.42227,170.086431 C1659.06687,170.086431 1685.42581,181.102578 1708.10041,203.134872 C1730.77501,224.566682 1742.42936,250.878788 1742.42936,280.870221 L1742.42936,312.084457 C1742.42936,331.070661 1724.65265,350.646431 1704.41606,350.646431 L1585.52202,350.646431 L1585.52202,371.455921 C1585.52202,397.778945 1607.58438,415.531427 1630.25898,415.531427 C1644.36227,415.531427 1659.06687,411.240698 1674.39463,403.281559 C1684.20134,397.778945 1692.16041,395.32242 1697.68147,395.32242 C1716.68265,395.32242 1729.55054,411.240698 1729.55054,428.982263 C1729.55054,442.454934 1722.19277,453.481999 1706.87594,462.653024 C1684.20134,476.125695 1659.06687,482.851113 1630.25898,482.851113 C1599.00215,482.851113 1571.41873,472.446367 1547.51966,451.025475 C1523.62059,429.604583 1511.96624,403.281559 1511.96624,372.078241 Z M1585.52202,296.788499 L1671.32252,296.788499 L1671.32252,280.870221 C1671.32252,256.992804 1651.1078,237.417034 1628.42227,237.417034 C1605.74768,237.417034 1585.52202,256.39232 1585.52202,280.870221 L1585.52202,296.788499 Z M1882.1427,444.904908 C1882.1427,463.880194 1866.81494,479.18707 1845.36481,479.18707 C1823.91469,479.18707 1808.58692,464.491596 1808.58692,444.904908 L1808.58692,75.2143683 C1808.58692,55.6276808 1823.91469,40.943124 1845.36481,40.943124 C1866.81494,40.943124 1882.1427,56.2390824 1882.1427,75.2143683 L1882.1427,444.904908 Z M2036.57923,444.904908 C2036.57923,463.880194 2021.25146,479.18707 1999.80134,479.18707 C1978.35121,479.18707 1963.02345,464.491596 1963.02345,444.904908 L1963.02345,208.04137 C1963.02345,188.454683 1978.35121,173.759208 1999.80134,173.759208 C2021.25146,173.759208 2036.57923,189.055166 2036.57923,208.04137 L2036.57923,444.904908 Z M2042.08935,81.950704 C2042.08935,106.439522 2022.47593,123.569686 1999.80134,123.569686 C1975.89133,123.569686 1957.51332,106.439522 1957.51332,81.950704 C1957.51332,57.4728035 1975.89133,40.3317224 1999.80134,40.3317224 C2022.47593,40.3317224 2042.08935,57.4728035 2042.08935,81.950704 Z"/>
    <g stroke="#FFFFFF" stroke-width="6" opacity=".5" transform="translate(0 31.25)" stroke-dasharray="39.336 39.336">
      <path d="M0 456L3300 456M0 3L3300 3"/>
    </g>
  </g>
</svg>
