<svg xmlns="http://www.w3.org/2000/svg" width="394" height="117" viewBox="0 0 394 117">
  <path fill="#FFFFFF" fill-rule="evenodd" d="M332.391028,1.02551964 C349.826786,-2.4004475 366.914595,2.88540336 379.010892,14.9669832 C389.418619,25.3572952 394.788781,39.4341624 393.90612,54.2468078 C393.141146,67.0360632 387.261855,78.987349 378.189633,88.0466178 L353.684911,112.518907 C350.694096,115.505451 346.761776,117 342.829457,117 C338.899695,117 334.967376,115.505451 331.976561,112.518907 L314.438467,95.005853 C313.440676,94.006932 313.440676,92.3897529 314.438467,91.3933866 L326.626867,79.2223892 C327.414866,78.4355153 328.60454,78.2796734 329.607447,78.7574183 C334.417312,81.0592799 339.915396,82.1552828 345.720492,81.6213327 C359.873773,80.3183921 371.530018,69.1156584 373.285107,55.0311269 C375.774467,35.0552603 358.998787,18.2575467 339.004591,20.6692641 C325.240193,22.3324293 314.123779,33.4176429 312.381482,47.1521689 C311.524405,53.8942474 312.903404,60.242889 315.830257,65.6360408 C316.38288,66.6554002 316.252399,67.9046902 315.431141,68.7247763 L304.27635,79.8636403 C303.122494,81.0158485 301.219016,80.796137 300.308212,79.4446555 C294.705232,71.1186101 291.66069,61.3516658 291.66069,51.0967575 C291.66069,34.0154627 299.998641,18.2115606 314.755713,8.32198656 C320.079823,4.75550623 326.102387,2.26203574 332.391028,1.02551964 Z M17.2106146,104.107748 C17.2106146,108.547965 13.6262425,112.129774 8.6040281,112.129774 C3.5843721,112.129774 0,108.691033 0,104.107748 L0,17.6001622 C0,13.0168773 3.5843721,9.58069102 8.6040281,9.58069102 C13.6262425,9.58069102 17.2106146,13.1599453 17.2106146,17.6001622 L17.2106146,104.107748 Z M53.3521378,104.107748 C53.3521378,108.547965 49.7677657,112.129774 44.7455513,112.129774 C39.7258953,112.129774 36.1415232,108.691033 36.1415232,104.107748 L36.1415232,48.6816806 C36.1415232,44.0983957 39.7258953,40.6596546 44.7455513,40.6596546 C49.7677657,40.6596546 53.3521378,44.2389089 53.3521378,48.6816806 L53.3521378,104.107748 Z M54.6415908,19.1764647 C54.6415908,24.9068483 50.0517524,28.9153065 44.7455513,28.9153065 C39.1528051,28.9153065 34.8495118,24.9068483 34.8495118,19.1764647 C34.8495118,13.448636 39.1528051,9.43762304 44.7455513,9.43762304 C50.0517524,9.43762304 54.6415908,13.448636 54.6415908,19.1764647 Z M89.4926377,84.916712 L89.4926377,104.108259 C89.4926377,108.548476 85.9082656,112.127731 80.8860511,112.127731 C75.8663951,112.127731 72.282023,108.691544 72.282023,104.108259 L72.282023,17.6006732 C72.282023,13.0173883 75.8663951,9.58120198 80.8860511,9.58120198 C85.9082656,9.58120198 89.4926377,13.1604562 89.4926377,17.6006732 L89.4926377,64.7211339 C89.4926377,65.7226098 90.0657278,66.2974365 91.0711941,66.2974365 C91.7875568,66.2974365 92.6471921,65.7226098 93.6526584,64.4349979 L110.433455,44.2394199 C112.585102,41.8047094 114.880021,40.5170976 117.318213,40.5170976 C121.908051,40.5170976 125.492423,44.0963519 125.492423,48.6796368 C125.492423,50.5420753 124.776061,52.2614458 123.486608,53.8351936 L105.413799,74.7486663 L124.489516,99.2362838 C125.635696,100.815141 126.211345,102.388889 126.211345,104.248773 C126.211345,108.402854 122.624414,112.127731 118.177848,112.127731 C115.166566,112.127731 112.585102,110.697051 110.433455,107.97365 L93.9392035,85.3459159 C92.9362957,84.0557493 91.9308294,83.3404094 91.2144667,83.3404094 C90.0657278,83.3404094 89.4926377,83.9126814 89.4926377,84.916712 Z M136.816327,87.0663084 L136.816327,65.7236317 C136.816327,58.4195004 139.543623,52.4029809 144.849824,47.3904921 C150.299297,42.3780033 156.754237,39.8002249 164.068812,39.8002249 C171.240115,39.8002249 177.40851,42.3780033 182.714711,47.5335601 C188.020912,52.5486037 190.748207,58.7056363 190.748207,65.7236317 L190.748207,73.0277629 C190.748207,77.4705346 186.588187,82.0512648 181.852517,82.0512648 L154.0295,82.0512648 L154.0295,86.9206856 C154.0295,93.0802731 159.192429,97.234354 164.49863,97.234354 C167.799015,97.234354 171.240115,96.2303234 174.827046,94.3678849 C177.121965,93.0802731 178.984508,92.5054464 180.276519,92.5054464 C184.723085,92.5054464 187.734367,96.2303234 187.734367,100.38185 C187.734367,103.534455 186.012538,106.114788 182.428166,108.260808 C177.121965,111.413413 171.240115,112.98716 164.49863,112.98716 C157.184055,112.98716 150.729115,110.55245 145.136369,105.539961 C139.543623,100.527472 136.816327,94.3678849 136.816327,87.0663084 Z M154.0295,69.4485087 L174.108124,69.4485087 L174.108124,65.7236317 C174.108124,60.1363161 169.377572,55.555586 164.068812,55.555586 C158.762611,55.555586 154.0295,59.9958029 154.0295,65.7236317 L154.0295,69.4485087 Z M223.443258,104.107748 C223.443258,108.547965 219.856328,112.129774 214.836672,112.129774 C209.817016,112.129774 206.230085,108.691033 206.230085,104.107748 L206.230085,17.6001622 C206.230085,13.0168773 209.817016,9.58069102 214.836672,9.58069102 C219.856328,9.58069102 223.443258,13.1599453 223.443258,17.6001622 L223.443258,104.107748 Z M259.583758,104.107748 C259.583758,108.547965 255.996827,112.129774 250.977171,112.129774 C245.957515,112.129774 242.370585,108.691033 242.370585,104.107748 L242.370585,48.6816806 C242.370585,44.0983957 245.957515,40.6596546 250.977171,40.6596546 C255.996827,40.6596546 259.583758,44.2389089 259.583758,48.6816806 L259.583758,104.107748 Z M260.873211,19.1764647 C260.873211,24.9068483 256.283373,28.9153065 250.977171,28.9153065 C245.381867,28.9153065 241.081132,24.9068483 241.081132,19.1764647 C241.081132,13.448636 245.381867,9.43762304 250.977171,9.43762304 C256.283373,9.43762304 260.873211,13.448636 260.873211,19.1764647 Z"/>
</svg>
