<svg xmlns="http://www.w3.org/2000/svg" width="4200" height="2800" viewBox="0 0 4200 2800" xmlns:xlink="http://www.w3.org/1999/xlink" style="background:#121212">
  <defs>
    <path id="a" d="M204.684906,419.029476 C204.229123,419.508882 203.761305,419.9767 203.281899,420.432482 C187.557336,435.382186 162.69093,434.754039 147.741227,419.029476 L147.741227,419.029476 C49.2470756,315.430268 0,234.116504 0,175.088183 C0,78.3896498 78.8932771,0 176.213066,0 C273.532856,0 352.426133,78.3896498 352.426133,175.088183 C352.426133,234.116504 303.179057,315.430268 204.684906,419.029476 Z M176.682968,265.396825 C225.472622,265.396825 265.024452,225.789423 265.024452,176.931217 C265.024452,128.07301 225.472622,88.4656085 176.682968,88.4656085 C127.893313,88.4656085 88.3414839,128.07301 88.3414839,176.931217 C88.3414839,225.789423 127.893313,265.396825 176.682968,265.396825 Z"/>
  </defs>
  <g fill="none" fill-rule="evenodd">
    <rect width="4200" height="2800" fill="#007EFF"/>
    <rect width="4200" height="2800" fill="#111111"/>
    <g transform="translate(1418 1125)">
      <path fill="#FFFFFF" d="M678.408,278.680338 C678.408,399.257261 622.93791,447.857143 535.418436,447.857143 C495.973039,447.857143 460.225648,440.474882 430.6416,428.786303 L430.6416,13.5341444 L520.010078,0 L520.010078,163.64011 C537.267439,148.2604 557.606472,136.571821 584.725182,136.571821 C642.044275,136.571821 678.408,183.941327 678.408,278.680338 Z M590.679303,287.182961 C590.679303,232.685555 574.060003,216.152634 551.900936,216.152634 C541.436933,216.152634 530.972929,221.663607 519.893396,230.848563 L519.893396,369.235235 C526.664222,371.684557 532.819518,372.909218 538.359285,372.909218 C569.751296,372.909218 590.679303,347.191341 590.679303,287.182961 Z M801.042169,447.857143 L710.587769,447.857143 L710.587769,13.6466165 L801.042169,0 L801.042169,447.857143 Z M893.63969,9.79728651 C921.338524,9.79728651 944.11312,31.2288508 944.11312,59.3960495 C944.11312,87.5632482 921.338524,109.607143 893.63969,109.607143 C865.325328,109.607143 843.166261,87.5632482 843.166261,59.3960495 C843.166261,31.2288508 865.325328,9.79728651 893.63969,9.79728651 Z M938.86689,447.857143 L848.41249,447.857143 L848.41249,143.392857 L938.86689,143.392857 L938.86689,447.857143 Z M1228.10441,279.487817 C1228.10441,396.556911 1173.25066,447.429868 1100.52321,447.429868 C1089.42919,447.429868 1078.9515,445.591086 1069.70649,443.139378 L1069.70649,536.917238 L980.338012,550.401636 L980.338012,144.030908 L1056.14713,144.030908 L1061.07781,174.06434 C1080.18417,153.837743 1102.98854,137.901636 1134.42159,137.901636 C1191.12435,137.901636 1228.10441,185.09703 1228.10441,279.487817 Z M1138.50067,287.182961 C1138.50067,232.073224 1121.88137,216.152634 1099.7223,216.152634 C1089.2583,216.152634 1078.17877,221.663607 1067.71476,230.848563 L1067.71476,368.622905 C1074.48559,371.684557 1079.40983,372.909218 1086.18065,372.909218 C1117.57266,372.909218 1138.50067,347.191341 1138.50067,287.182961 Z"/>
      <mask id="b" fill="white">
        <use xlink:href="#a"/>
      </mask>
      <use fill="#0065FF" xlink:href="#a"/>
      <ellipse cx="176.683" cy="224.113" fill="#FFFFFF" stroke="#007EFF" stroke-width="19.643" mask="url(#b)" rx="176.683" ry="176.931"/>
      <ellipse cy="47.182" fill="#FFFFFF" stroke="#007EFF" stroke-width="19.643" mask="url(#b)" rx="176.683" ry="176.931"/>
      <ellipse cy="224.113" fill="#FFFFFF" stroke="#007EFF" stroke-width="19.643" mask="url(#b)" rx="176.683" ry="176.931"/>
      <ellipse cy="401.044" fill="#FFFFFF" stroke="#007EFF" stroke-width="19.643" mask="url(#b)" rx="176.683" ry="176.931"/>
      <ellipse cx="176.683" cy="401.044" fill="#FFFFFF" stroke="#007EFF" stroke-width="19.643" mask="url(#b)" rx="176.683" ry="176.931"/>
      <ellipse cx="353.366" cy="401.044" fill="#FFFFFF" stroke="#007EFF" stroke-width="19.643" mask="url(#b)" rx="176.683" ry="176.931"/>
      <ellipse cx="353.366" cy="224.113" fill="#FFFFFF" stroke="#007EFF" stroke-width="19.643" mask="url(#b)" rx="176.683" ry="176.931"/>
      <ellipse cx="176.683" cy="47.182" fill="#FFFFFF" stroke="#007EFF" stroke-width="19.643" mask="url(#b)" rx="176.683" ry="176.931"/>
      <ellipse cx="353.366" cy="47.182" fill="#FFFFFF" stroke="#007EFF" stroke-width="19.643" mask="url(#b)" rx="176.683" ry="176.931"/>
    </g>
  </g>
</svg>
