<svg xmlns="http://www.w3.org/2000/svg" width="2100" height="1400" viewBox="0 0 2100 1400" xmlns:xlink="http://www.w3.org/1999/xlink" style="background:#121212">
  <defs>
    <path id="a" d="M102.342453,209.514738 C102.114562,209.754441 101.880653,209.98835 101.64095,210.216241 C93.7786682,217.691093 81.3454651,217.377019 73.8706133,209.514738 L73.8706134,209.514738 C24.6235378,157.715134 0,117.058252 0,87.5440917 C0,39.1948249 39.4466385,0 88.1065332,0 C136.766428,0 176.213066,39.1948249 176.213066,87.5440917 C176.213066,117.058252 151.589528,157.715134 102.342453,209.514738 Z M88.3414839,132.698413 C112.736311,132.698413 132.512226,112.894712 132.512226,88.4656085 C132.512226,64.0365052 112.736311,44.2328042 88.3414839,44.2328042 C63.9466567,44.2328042 44.170742,64.0365052 44.170742,88.4656085 C44.170742,112.894712 63.9466567,132.698413 88.3414839,132.698413 Z"/>
  </defs>
  <g fill="none" fill-rule="evenodd">
    <rect width="2100" height="1400" fill="#007EFF"/>
    <rect width="2100" height="1400" fill="#111111"/>
    <g transform="translate(709 562.5)">
      <path fill="#FFFFFF" d="M339.204,139.340169 C339.204,199.62863 311.468955,223.928571 267.709218,223.928571 C247.986519,223.928571 230.112824,220.237441 215.3208,214.393151 L215.3208,6.76707221 L260.005039,0 L260.005039,81.8200549 C268.633719,74.1302002 278.803236,68.2859105 292.362591,68.2859105 C321.022137,68.2859105 339.204,91.9706633 339.204,139.340169 Z M295.339651,143.59148 C295.339651,116.342777 287.030002,108.076317 275.950468,108.076317 C270.718466,108.076317 265.486465,110.831804 259.946698,115.424282 L259.946698,184.617618 C263.332111,185.842279 266.409759,186.454609 269.179642,186.454609 C284.875648,186.454609 295.339651,173.59567 295.339651,143.59148 Z M400.521085,223.928571 L355.293885,223.928571 L355.293885,6.82330827 L400.521085,0 L400.521085,223.928571 Z M446.819845,4.89864326 C460.669262,4.89864326 472.05656,15.6144254 472.05656,29.6980247 C472.05656,43.7816241 460.669262,54.8035714 446.819845,54.8035714 C432.662664,54.8035714 421.583131,43.7816241 421.583131,29.6980247 C421.583131,15.6144254 432.662664,4.89864326 446.819845,4.89864326 Z M469.433445,223.928571 L424.206245,223.928571 L424.206245,71.6964286 L469.433445,71.6964286 L469.433445,223.928571 Z M614.052206,139.743909 C614.052206,198.278455 586.625328,223.714934 550.261603,223.714934 C544.714594,223.714934 539.475752,222.795543 534.853245,221.569689 L534.853245,268.458619 L490.169006,275.200818 L490.169006,72.015454 L528.073567,72.015454 L530.538904,87.0321702 C540.092087,76.9188715 551.494272,68.950818 567.210797,68.950818 C595.562176,68.950818 614.052206,92.5485149 614.052206,139.743909 Z M569.250335,143.59148 C569.250335,116.036612 560.940685,108.076317 549.861152,108.076317 C544.62915,108.076317 539.089384,110.831804 533.857382,115.424282 L533.857382,184.311453 C537.242795,185.842279 539.704913,186.454609 543.090326,186.454609 C558.786332,186.454609 569.250335,173.59567 569.250335,143.59148 Z"/>
      <mask id="b" fill="white">
        <use xlink:href="#a"/>
      </mask>
      <use fill="#0065FF" xlink:href="#a"/>
      <ellipse cx="88.341" cy="112.056" fill="#FFFFFF" stroke="#007EFF" stroke-width="9.821" mask="url(#b)" rx="88.341" ry="88.466"/>
      <ellipse cy="23.591" fill="#FFFFFF" stroke="#007EFF" stroke-width="9.821" mask="url(#b)" rx="88.341" ry="88.466"/>
      <ellipse cy="112.056" fill="#FFFFFF" stroke="#007EFF" stroke-width="9.821" mask="url(#b)" rx="88.341" ry="88.466"/>
      <ellipse cy="200.522" fill="#FFFFFF" stroke="#007EFF" stroke-width="9.821" mask="url(#b)" rx="88.341" ry="88.466"/>
      <ellipse cx="88.341" cy="200.522" fill="#FFFFFF" stroke="#007EFF" stroke-width="9.821" mask="url(#b)" rx="88.341" ry="88.466"/>
      <ellipse cx="176.683" cy="200.522" fill="#FFFFFF" stroke="#007EFF" stroke-width="9.821" mask="url(#b)" rx="88.341" ry="88.466"/>
      <ellipse cx="176.683" cy="112.056" fill="#FFFFFF" stroke="#007EFF" stroke-width="9.821" mask="url(#b)" rx="88.341" ry="88.466"/>
      <ellipse cx="88.341" cy="23.591" fill="#FFFFFF" stroke="#007EFF" stroke-width="9.821" mask="url(#b)" rx="88.341" ry="88.466"/>
      <ellipse cx="176.683" cy="23.591" fill="#FFFFFF" stroke="#007EFF" stroke-width="9.821" mask="url(#b)" rx="88.341" ry="88.466"/>
    </g>
  </g>
</svg>
