<svg xmlns="http://www.w3.org/2000/svg" width="286" height="129" viewBox="0 0 286 129" xmlns:xlink="http://www.w3.org/1999/xlink">
  <defs>
    <path id="a" d="M47.6328915,97.518782 C47.5266498,97.6305396 47.4175979,97.7395915 47.3058403,97.8458332 C43.6461621,101.324886 37.8590773,101.17846 34.3800245,97.518782 L34.3800246,97.5187819 C11.4600082,73.4088047 0,54.4851425 0,40.7477954 C0,18.2434094 18.3592166,0 41.0064581,0 C63.6536995,0 82.0129161,18.2434094 82.0129161,40.7477954 C82.0129161,54.4851425 70.5529079,73.4088047 47.6328915,97.518782 Z M41.1158086,61.7650794 C52.4696257,61.7650794 61.6737129,52.5473567 61.6737129,41.1767196 C61.6737129,29.8060824 52.4696257,20.5883598 41.1158086,20.5883598 C29.7619916,20.5883598 20.5579043,29.8060824 20.5579043,41.1767196 C20.5579043,52.5473567 29.7619916,61.7650794 41.1158086,61.7650794 Z"/>
  </defs>
  <g fill="none" fill-rule="evenodd">
    <path fill="#FFFFFF" d="M157.872,64.8565149 C157.872,92.9180534 144.963582,104.228571 124.596967,104.228571 C115.417648,104.228571 107.09889,102.510518 100.2144,99.7902669 L100.2144,3.14976452 L121.011296,0 L121.011296,38.0835165 C125.027248,34.5042386 129.760334,31.7839874 136.071116,31.7839874 C149.409815,31.7839874 157.872,42.8081633 157.872,64.8565149 Z M137.456697,66.8353073 C137.456697,54.1522745 133.589228,50.3046129 128.432602,50.3046129 C125.997529,50.3046129 123.562455,51.5871668 120.984143,53.7247566 L120.984143,85.9311093 C122.559778,86.5011333 123.992174,86.7861453 125.281331,86.7861453 C132.58655,86.7861453 137.456697,80.8008939 137.456697,66.8353073 Z M186.410139,104.228571 L165.360539,104.228571 L165.360539,3.17593985 L186.410139,0 L186.410139,104.228571 Z M207.958463,2.28009577 C214.404246,2.28009577 219.704111,7.26780527 219.704111,13.8230806 C219.704111,20.3783559 214.404246,25.5085714 207.958463,25.5085714 C201.369442,25.5085714 196.212816,20.3783559 196.212816,13.8230806 C196.212816,7.26780527 201.369442,2.28009577 207.958463,2.28009577 Z M218.483263,104.228571 L197.433663,104.228571 L197.433663,33.3714286 L218.483263,33.3714286 L218.483263,104.228571 Z M285.791588,65.0444375 C285.791588,92.2896084 273.026597,104.129133 256.102227,104.129133 C253.520543,104.129133 251.082287,103.701198 248.930884,103.130619 L248.930884,124.955284 L228.133988,128.093472 L228.133988,33.5199204 L245.775493,33.5199204 L246.922908,40.5095192 C251.36914,35.8022384 256.675934,32.0934717 263.990705,32.0934717 C277.185976,32.0934717 285.791588,43.0771269 285.791588,65.0444375 Z M264.939945,66.8353073 C264.939945,54.0097686 261.072475,50.3046129 255.91585,50.3046129 C253.480776,50.3046129 250.902463,51.5871668 248.46739,53.7247566 L248.46739,85.7886034 C250.043026,86.5011333 251.188943,86.7861453 252.764578,86.7861453 C260.069798,86.7861453 264.939945,80.8008939 264.939945,66.8353073 Z"/>
    <mask id="b" fill="white">
      <use xlink:href="#a"/>
    </mask>
    <use fill="#0065FF" xlink:href="#a"/>
    <ellipse cx="41.116" cy="52.157" fill="#FFFFFF" stroke="#000000" stroke-width="4.571" mask="url(#b)" rx="41.116" ry="41.177"/>
    <ellipse cy="10.98" fill="#FFFFFF" stroke="#000000" stroke-width="4.571" mask="url(#b)" rx="41.116" ry="41.177"/>
    <ellipse cy="52.157" fill="#FFFFFF" stroke="#000000" stroke-width="4.571" mask="url(#b)" rx="41.116" ry="41.177"/>
    <ellipse cy="93.334" fill="#FFFFFF" stroke="#000000" stroke-width="4.571" mask="url(#b)" rx="41.116" ry="41.177"/>
    <ellipse cx="41.116" cy="93.334" fill="#FFFFFF" stroke="#000000" stroke-width="4.571" mask="url(#b)" rx="41.116" ry="41.177"/>
    <ellipse cx="82.232" cy="93.334" fill="#FFFFFF" stroke="#000000" stroke-width="4.571" mask="url(#b)" rx="41.116" ry="41.177"/>
    <ellipse cx="82.232" cy="52.157" fill="#FFFFFF" stroke="#000000" stroke-width="4.571" mask="url(#b)" rx="41.116" ry="41.177"/>
    <ellipse cx="41.116" cy="10.98" fill="#FFFFFF" stroke="#000000" stroke-width="4.571" mask="url(#b)" rx="41.116" ry="41.177"/>
    <ellipse cx="82.232" cy="10.98" fill="#FFFFFF" stroke="#000000" stroke-width="4.571" mask="url(#b)" rx="41.116" ry="41.177"/>
  </g>
</svg>
