<svg xmlns="http://www.w3.org/2000/svg" width="2100" height="1400" viewBox="0 0 2100 1400" style="background:#121212">
  <g fill="none" fill-rule="evenodd">
    <rect width="2100" height="1400" fill="#FF6670"/>
    <rect width="2100" height="1400" fill="#111111"/>
    <g fill="#FFFFFF" transform="translate(489 600.5)">
      <path d="M133.164579,174.518518 C133.164579,179.62963 129.187397,183.777778 124.28694,183.777778 L53.2658317,183.777778 C48.3742527,183.777778 44.388193,179.62963 44.388193,174.518518 L44.388193,146.740741 L133.164579,146.740741 L133.164579,174.518518 Z" opacity=".5"/>
      <path d="M125.766547,120.033333 L125.766547,134.848148 L51.7862252,134.848148 L51.7862252,112.248148 C51.7862252,110.144444 50.8910632,108.137037 49.3226805,106.72963 C47.9540445,105.507407 46.200711,104.840741 44.388193,104.840741 C44.114466,104.840741 43.8407387,104.855556 43.5670115,104.892593 L42.287152,105.055555 C41.7618917,105.122222 41.2366312,105.218518 40.689177,105.218518 C26.410975,105.218518 14.7960643,93.588889 14.7960643,79.2925925 C14.7960643,64.9962963 26.410975,53.3666668 40.689177,53.3666668 C41.5103585,53.3666668 42.29455,53.5 43.0787415,53.611111 L44.0404855,53.737037 C48.020627,54.262963 51.6752547,51.5074075 52.2966895,47.5518518 C55.15233,29.4555555 70.4884505,16.3296296 88.7763862,16.3296296 C106.908963,16.3296296 122.230288,29.3296298 125.211695,47.2407408 C125.803537,50.8185185 128.895915,53.4333333 132.506154,53.4333333 C132.705901,53.425926 133.105395,53.4037038 133.490093,53.3666668 C149.654793,53.537037 162.756708,66.7666668 162.756708,82.9962963 C162.756708,99.337037 149.484638,112.625926 133.164579,112.625926 C129.073467,112.625926 125.766547,115.937037 125.766547,120.033333 Z M125.766547,171.885185 C125.766547,175.974074 122.452229,179.292593 118.368515,179.292593 L59.1842575,179.292593 C55.1079417,179.292593 51.7862252,175.974074 51.7862252,171.885185 L51.7862252,149.662963 L125.766547,149.662963 L125.766547,171.885185 Z M138.46157,38.862963 C160.448522,41.4925925 177.552772,60.2851852 177.552772,82.9962963 C177.552772,104.981482 161.528634,123.285185 140.562611,126.825926 L140.562611,134.848148 L140.562611,171.885185 C140.562611,184.137037 130.60486,194.107407 118.368515,194.107407 L59.1842575,194.107407 C46.9479122,194.107407 36.990161,184.137037 36.990161,171.885185 L36.990161,134.848148 L36.990161,119.87037 C16.2830688,117.996296 0,100.507407 0,79.2925925 C0,57.337037 17.4371618,39.3814815 39.1725805,38.5814815 C45.5792762,16.7444444 65.4725847,1.51481481 88.7763862,1.51481481 C112.124576,1.51481481 132.136253,16.9 138.46157,38.862963 Z M261.271862,69.831111 C266.20635,58.4385185 277.79167,51.7792593 291.529815,51.7792593 C294.533417,51.7792593 297.11533,52.2162963 298.180645,52.4237038 L298.180645,77.7792593 C295.391587,77.3496298 292.60253,77.1348148 290.028015,77.1348148 C270.711752,77.1348148 261.915492,88.3125925 261.915492,107.868148 L261.915492,157.705185 L237.028512,157.705185 L237.028512,53.0681483 L261.271862,53.0681483 L261.271862,69.831111 Z M360.6119,49.8496297 C392.79334,49.8496297 411.680515,71.1162963 411.680515,104.205185 C411.680515,108.294074 411.258827,111.731111 411.036887,112.160741 L334.644807,112.160741 C335.288435,128.064445 347.731925,139.44963 363.186415,139.44963 C378.20442,139.44963 385.935365,131.494074 389.36805,121.182963 L410.393257,127.842222 C404.807745,146.101482 388.287937,160.931111 363.186415,160.931111 C334.851952,160.931111 309.750427,140.301482 309.750427,104.857037 C309.750427,71.7607407 334.208322,49.8496297 360.6119,49.8496297 Z M481.392172,138.161482 C497.704835,138.161482 505.213837,126.768889 507.57381,118.820741 L529.464587,126.768889 C524.5301,143.094815 508.861067,160.931852 481.392172,160.931852 C450.712535,160.931852 427.312557,137.08 427.312557,105.287408 C427.312557,73.0503703 450.712535,49.8503703 480.748545,49.8503703 C508.861067,49.8503703 524.315555,67.4651853 528.606415,84.2281483 L506.286552,92.391111 C503.92658,83.154074 496.846662,72.842963 480.963087,72.842963 C465.73054,72.842963 452.214335,84.2281483 452.214335,105.287408 C452.214335,126.339259 465.73054,138.161482 481.392172,138.161482 Z M563.77518,0 C572.785982,0 580.080442,7.3037037 580.080442,16.3333333 C580.080442,25.3555555 572.785982,32.4444445 563.77518,32.4444445 C554.97892,32.4444445 547.677062,25.3555555 547.677062,16.3333333 C547.677062,7.3037037 554.97892,0 563.77518,0 Z M551.545492,157.705185 L551.545492,53.0681483 L576.225327,53.0681483 L576.225327,157.705185 L551.545492,157.705185 Z M665.688252,50.7096298 C696.589832,50.7096298 713.975207,74.3392593 713.975207,105.287408 C713.975207,136.657778 694.87349,160.287408 664.83008,160.287408 C649.804677,160.287408 638.433902,153.842963 633.070327,145.894815 L633.070327,198.531852 L608.39789,198.531852 L608.39789,53.0725925 L632.4267,53.0725925 L632.4267,67.2503703 C637.57573,58.2281483 649.597532,50.7096298 665.688252,50.7096298 Z M780.681045,49.8496297 C812.862485,49.8496297 831.74966,71.1162963 831.74966,104.205185 C831.74966,108.294074 831.327972,111.731111 831.106032,112.160741 L754.713952,112.160741 C755.35758,128.064445 767.80107,139.44963 783.25556,139.44963 C798.273565,139.44963 806.00451,131.494074 809.437195,121.182963 L830.462402,127.842222 C824.87689,146.101482 808.357082,160.931111 783.25556,160.931111 C754.921097,160.931111 729.819572,140.301482 729.819572,104.857037 C729.819572,71.7607407 754.277467,49.8496297 780.681045,49.8496297 Z M855.545432,157.705185 L855.545432,2.14962963 L880.432412,2.14962963 L880.432412,157.705185 L855.545432,157.705185 Z M924.84058,0 C933.851382,0 941.145842,7.3037037 941.145842,16.3333333 C941.145842,25.3555555 933.851382,32.4444445 924.84058,32.4444445 C916.04432,32.4444445 908.742462,25.3555555 908.742462,16.3333333 C908.742462,7.3037037 916.04432,0 924.84058,0 Z M912.606453,157.705185 L912.606453,53.0681483 L937.28629,53.0681483 L937.28629,157.705185 L912.606453,157.705185 Z M1012.80762,95.6162963 C1032.54557,99.9125925 1042.85103,111.94963 1042.85103,127.408889 C1042.85103,143.312592 1029.97106,160.934815 1003.36773,160.934815 C973.10978,160.934815 961.517063,141.171852 960.229805,129.34963 L981.90604,123.334815 C982.756815,132.786667 989.84413,141.171852 1003.14579,141.171852 C1013.45125,141.171852 1018.81482,135.579259 1018.81482,129.134815 C1018.81482,123.54963 1014.95305,119.253333 1006.57848,117.527407 L991.131388,114.097778 C972.673298,110.008889 963.026263,97.9792592 963.026263,83.5792593 C963.026263,65.32 979.753213,49.845926 1001.43685,49.845926 C1030.61469,49.845926 1040.06197,68.757037 1041.77832,79.0681482 L1020.74571,85.0903702 C1019.88754,79.0681482 1015.38214,69.4014815 1001.43685,69.4014815 C992.633188,69.4014815 986.411443,74.9866667 986.411443,81.431111 C986.411443,87.0162963 990.487758,91.1051853 996.931445,92.394074 L1012.80762,95.6162963 Z M1112.35628,136.874074 C1115.78897,136.874074 1119.86528,136.222222 1120.938,136.007407 L1120.938,156.637037 C1119.4362,157.281482 1114.70885,158.992593 1105.70545,158.992593 C1086.38919,158.992593 1074.36739,147.4 1074.36739,127.844445 L1074.36739,75.2 L1055.05852,75.2 L1055.05852,53.074074 L1060.42209,53.074074 C1071.57833,53.074074 1076.51281,45.9777778 1076.51281,36.7407408 L1076.51281,21.0592593 L1099.04722,21.0592593 L1099.04722,53.074074 L1120.72345,53.074074 L1120.72345,75.2 L1099.04722,75.2 L1099.04722,123.762963 C1099.04722,133 1103.12354,136.874074 1112.35628,136.874074 Z M755.35758,93.894074 L806.648137,93.894074 C806.211655,81.6496298 798.059022,70.6866668 780.88819,70.6866668 C765.226555,70.6866668 756.215752,82.7237037 755.35758,93.894074 Z M335.288435,93.894074 L386.578992,93.894074 C386.14251,81.6496298 377.989877,70.6866668 360.819045,70.6866668 C345.15741,70.6866668 336.146607,82.7237037 335.288435,93.894074 Z M660.968307,138.161481 C644.663045,138.161481 632.855785,125.272593 632.855785,105.287408 C632.855785,85.7318518 644.663045,72.842963 660.968307,72.842963 C677.710055,72.842963 689.08083,85.7318518 689.08083,105.287408 C689.08083,125.272593 677.488112,138.161481 660.968307,138.161481 L660.968307,138.161481 Z"/>
    </g>
  </g>
</svg>
