<svg xmlns="http://www.w3.org/2000/svg" width="4200" height="2800" viewBox="0 0 4200 2800" style="background:#121212">
  <g fill="none" fill-rule="evenodd">
    <rect width="4200" height="2800" fill="#FF6670"/>
    <rect width="4200" height="2800" fill="#111111"/>
    <g fill="#FFFFFF" transform="translate(978 1201)">
      <path d="M266.329158,349.037037 C266.329158,359.259259 258.374794,367.555555 248.573881,367.555555 L106.531663,367.555555 C96.7485055,367.555555 88.776386,359.259259 88.776386,349.037037 L88.776386,293.481481 L266.329158,293.481481 L266.329158,349.037037 Z" opacity=".5"/>
      <path d="M251.533094,240.066666 L251.533094,269.696297 L103.57245,269.696297 L103.57245,224.496296 C103.57245,220.288889 101.782126,216.274074 98.645361,213.45926 C95.908089,211.014815 92.401422,209.681481 88.776386,209.681481 C88.228932,209.681481 87.6814775,209.711111 87.134023,209.785185 L84.574304,210.111111 C83.5237835,210.244444 82.4732625,210.437037 81.378354,210.437037 C52.82195,210.437037 29.5921287,187.177778 29.5921287,158.585185 C29.5921287,129.992593 52.82195,106.733334 81.378354,106.733334 C83.020717,106.733334 84.5891,107 86.157483,107.222222 L88.080971,107.474074 C96.041254,108.525926 103.350509,103.014815 104.593379,95.1037035 C110.30466,58.911111 140.976901,32.6592593 177.552772,32.6592593 C213.817926,32.6592593 244.460575,58.6592595 250.423389,94.4814815 C251.607074,101.637037 257.791829,106.866667 265.012308,106.866667 C265.411802,106.851852 266.21079,106.807408 266.980185,106.733334 C299.309586,107.074074 325.513416,133.533334 325.513416,165.992593 C325.513416,198.674074 298.969276,225.251852 266.329158,225.251852 C258.146935,225.251852 251.533094,231.874074 251.533094,240.066666 Z M251.533094,343.770371 C251.533094,351.948148 244.904457,358.585185 236.737029,358.585185 L118.368515,358.585185 C110.215883,358.585185 103.57245,351.948148 103.57245,343.770371 L103.57245,299.325926 L251.533094,299.325926 L251.533094,343.770371 Z M276.92314,77.725926 C320.897044,82.985185 355.105544,120.57037 355.105544,165.992593 C355.105544,209.962963 323.057269,246.57037 281.125223,253.651852 L281.125223,269.696297 L281.125223,343.770371 C281.125223,368.274074 261.20972,388.214815 236.737029,388.214815 L118.368515,388.214815 C93.8958245,388.214815 73.980322,368.274074 73.980322,343.770371 L73.980322,269.696297 L73.980322,239.74074 C32.5661376,235.992593 0,201.014815 0,158.585185 C0,114.674074 34.8743237,78.762963 78.345161,77.162963 C91.1585525,33.4888889 130.945169,3.02962963 177.552772,3.02962963 C224.249151,3.02962963 264.272505,33.8 276.92314,77.725926 Z M522.543725,139.662222 C532.4127,116.877037 555.58334,103.558519 583.05963,103.558519 C589.066835,103.558519 594.23066,104.432593 596.36129,104.847408 L596.36129,155.558519 C590.783175,154.69926 585.20506,154.26963 580.05603,154.26963 C541.423505,154.26963 523.830985,176.625185 523.830985,215.736297 L523.830985,315.410371 L474.057024,315.410371 L474.057024,106.136297 L522.543725,106.136297 L522.543725,139.662222 Z M721.2238,99.6992595 C785.58668,99.6992595 823.36103,142.232593 823.36103,208.41037 C823.36103,216.588148 822.517655,223.462222 822.073775,224.321482 L669.289615,224.321482 C670.57687,256.128889 695.46385,278.89926 726.37283,278.89926 C756.40884,278.89926 771.87073,262.988148 778.7361,242.365926 L820.786515,255.684445 C809.61549,292.202963 776.575875,321.862222 726.37283,321.862222 C669.703905,321.862222 619.500855,280.602963 619.500855,209.714074 C619.500855,143.521481 668.416645,99.6992595 721.2238,99.6992595 Z M962.784345,276.322963 C995.40967,276.322963 1010.42767,253.537778 1015.14762,237.641481 L1058.92917,253.537778 C1049.0602,286.18963 1017.72213,321.863703 962.784345,321.863703 C901.42507,321.863703 854.625115,274.16 854.625115,210.574815 C854.625115,146.100741 901.42507,99.7007405 961.49709,99.7007405 C1017.72213,99.7007405 1048.63111,134.930371 1057.21283,168.456297 L1012.5731,184.782222 C1007.85316,166.308148 993.693325,145.685926 961.926175,145.685926 C931.46108,145.685926 904.42867,168.456297 904.42867,210.574815 C904.42867,252.678518 931.46108,276.322963 962.784345,276.322963 Z M1127.55036,0 C1145.57196,0 1160.16088,14.6074074 1160.16088,32.6666667 C1160.16088,50.711111 1145.57196,64.888889 1127.55036,64.888889 C1109.95784,64.888889 1095.35412,50.711111 1095.35412,32.6666667 C1095.35412,14.6074074 1109.95784,0 1127.55036,0 Z M1103.09098,315.41037 L1103.09098,106.136297 L1152.45065,106.136297 L1152.45065,315.41037 L1103.09098,315.41037 Z M1331.3765,101.41926 C1393.17966,101.41926 1427.95041,148.678519 1427.95041,210.574815 C1427.95041,273.315556 1389.74698,320.574815 1329.66016,320.574815 C1299.60935,320.574815 1276.8678,307.685926 1266.14065,291.789629 L1266.14065,397.063704 L1216.79578,397.063704 L1216.79578,106.145185 L1264.8534,106.145185 L1264.8534,134.500741 C1275.15146,116.456297 1299.19506,101.41926 1331.3765,101.41926 Z M1561.36209,99.6992595 C1625.72497,99.6992595 1663.49932,142.232593 1663.49932,208.41037 C1663.49932,216.588148 1662.65594,223.462222 1662.21206,224.321482 L1509.4279,224.321482 C1510.71516,256.128889 1535.60214,278.89926 1566.51112,278.89926 C1596.54713,278.89926 1612.00902,262.988148 1618.87439,242.365926 L1660.9248,255.684445 C1649.75378,292.202963 1616.71416,321.862222 1566.51112,321.862222 C1509.84219,321.862222 1459.63914,280.602963 1459.63914,209.714074 C1459.63914,143.521481 1508.55493,99.6992595 1561.36209,99.6992595 Z M1711.09086,315.41037 L1711.09086,4.29925926 L1760.86482,4.29925926 L1760.86482,315.41037 L1711.09086,315.41037 Z M1849.68116,0 C1867.70276,0 1882.29168,14.6074074 1882.29168,32.6666667 C1882.29168,50.711111 1867.70276,64.888889 1849.68116,64.888889 C1832.08864,64.888889 1817.48492,50.711111 1817.48492,32.6666667 C1817.48492,14.6074074 1832.08864,0 1849.68116,0 Z M1825.21291,315.41037 L1825.21291,106.136297 L1874.57258,106.136297 L1874.57258,315.41037 L1825.21291,315.41037 Z M2025.61524,191.232593 C2065.09114,199.825185 2085.70206,223.899259 2085.70206,254.817778 C2085.70206,286.625185 2059.94211,321.869629 2006.73547,321.869629 C1946.21956,321.869629 1923.03413,282.343703 1920.45961,258.699259 L1963.81208,246.669629 C1965.51363,265.573333 1979.68826,282.343703 2006.29158,282.343703 C2026.9025,282.343703 2037.62965,271.158519 2037.62965,258.269629 C2037.62965,247.099259 2029.9061,238.506666 2013.15696,235.054815 L1982.26278,228.195556 C1945.3466,220.017778 1926.05253,195.958518 1926.05253,167.158519 C1926.05253,130.64 1959.50643,99.691852 2002.87369,99.691852 C2061.22937,99.691852 2080.12395,137.514074 2083.55663,158.136296 L2041.49142,170.18074 C2039.77508,158.136296 2030.76427,138.802963 2002.87369,138.802963 C1985.26638,138.802963 1972.82289,149.973333 1972.82289,162.862222 C1972.82289,174.032593 1980.97552,182.210371 1993.86289,184.788148 L2025.61524,191.232593 Z M2224.71256,273.748148 C2231.57793,273.748148 2239.73057,272.444445 2241.876,272.014815 L2241.876,313.274074 C2238.87239,314.562963 2229.41771,317.985185 2211.4109,317.985185 C2172.77837,317.985185 2148.73477,294.8 2148.73477,255.688889 L2148.73477,150.4 L2110.11704,150.4 L2110.11704,106.148148 L2120.84419,106.148148 C2143.15665,106.148148 2153.02563,91.9555555 2153.02563,73.4814815 L2153.02563,42.1185185 L2198.09444,42.1185185 L2198.09444,106.148148 L2241.44691,106.148148 L2241.44691,150.4 L2198.09444,150.4 L2198.09444,247.525926 C2198.09444,266 2206.24707,273.748148 2224.71256,273.748148 Z M1510.71516,187.788148 L1613.29627,187.788148 C1612.42331,163.29926 1596.11804,141.373334 1561.77638,141.373334 C1530.45311,141.373334 1512.4315,165.447407 1510.71516,187.788148 Z M670.57687,187.788148 L773.157985,187.788148 C772.28502,163.29926 755.979755,141.373334 721.63809,141.373334 C690.31482,141.373334 672.293215,165.447407 670.57687,187.788148 Z M1321.93661,276.322963 C1289.32609,276.322963 1265.71157,250.545185 1265.71157,210.574815 C1265.71157,171.463704 1289.32609,145.685926 1321.93661,145.685926 C1355.42011,145.685926 1378.16166,171.463704 1378.16166,210.574815 C1378.16166,250.545185 1354.97622,276.322963 1321.93661,276.322963 L1321.93661,276.322963 Z"/>
    </g>
  </g>
</svg>
