<svg xmlns="http://www.w3.org/2000/svg" width="449" height="80" viewBox="0 0 449 80">
  <g fill="#FFFFFF" fill-rule="evenodd">
    <path d="M53.2658317,69.8074074 C53.2658317,71.8518519 51.6749589,73.5111111 49.7147762,73.5111111 L21.3063327,73.5111111 C19.3497011,73.5111111 17.7552772,71.8518519 17.7552772,69.8074074 L17.7552772,58.6962963 L53.2658317,58.6962963 L53.2658317,69.8074074 Z" opacity=".5"/>
    <path d="M50.3066188,48.0133333 L50.3066188,53.9392593 L20.7144901,53.9392593 L20.7144901,44.8992593 C20.7144901,44.0577778 20.3564253,43.2548148 19.7290722,42.6918519 C19.1816178,42.202963 18.4802844,41.9362963 17.7552772,41.9362963 C17.6457864,41.9362963 17.5362955,41.9422222 17.4268046,41.957037 L16.9148608,42.0222222 C16.7047567,42.0488889 16.4946525,42.0874074 16.2756708,42.0874074 C10.56439,42.0874074 5.91842574,37.4355556 5.91842574,31.717037 C5.91842574,25.9985185 10.56439,21.3466667 16.2756708,21.3466667 C16.6041434,21.3466667 16.91782,21.4 17.2314966,21.4444444 L17.6161942,21.4948148 C19.2082508,21.7051852 20.6701019,20.602963 20.9186758,19.0207407 C22.060932,11.7822222 28.1953802,6.53185185 35.5105545,6.53185185 C42.7635852,6.53185185 48.8921151,11.7318519 50.0846779,18.8962963 C50.3214149,20.3274074 51.5583659,21.3733333 53.0024617,21.3733333 C53.0823605,21.3703704 53.242158,21.3614815 53.3960371,21.3466667 C59.8619172,21.4148148 65.1026832,26.7066667 65.1026832,33.1985185 C65.1026832,39.7348148 59.7938553,45.0503704 53.2658317,45.0503704 C51.629387,45.0503704 50.3066188,46.3748148 50.3066188,48.0133333 Z M50.3066188,68.7540741 C50.3066188,70.3896296 48.9808915,71.717037 47.3474059,71.717037 L23.673703,71.717037 C22.0431767,71.717037 20.7144901,70.3896296 20.7144901,68.7540741 L20.7144901,59.8651852 L50.3066188,59.8651852 L50.3066188,68.7540741 Z M55.3846281,15.5451852 C64.1794088,16.597037 71.0211089,24.1140741 71.0211089,33.1985185 C71.0211089,41.9925926 64.6114538,49.3140741 56.2250446,50.7303704 L56.2250446,53.9392593 L56.2250446,68.7540741 C56.2250446,73.6548148 52.241944,77.642963 47.3474059,77.642963 L23.673703,77.642963 C18.7791649,77.642963 14.7960644,73.6548148 14.7960644,68.7540741 L14.7960644,53.9392593 L14.7960644,47.9481481 C6.51322753,47.1985185 0,40.202963 0,31.717037 C0,22.9348148 6.97486474,15.7525926 15.6690322,15.4325926 C18.2317105,6.69777778 26.1890339,0.605925926 35.5105545,0.605925926 C44.8498303,0.605925926 52.8545011,6.76 55.3846281,15.5451852 Z M104.508745,27.9324444 C106.48254,23.3754074 111.116668,20.7117037 116.611926,20.7117037 C117.813367,20.7117037 118.846132,20.8865185 119.272258,20.9694815 L119.272258,31.1117037 C118.156635,30.9398519 117.041012,30.8539259 116.011206,30.8539259 C108.284701,30.8539259 104.766197,35.325037 104.766197,43.1472593 L104.766197,63.0820741 L94.8114049,63.0820741 L94.8114049,21.2272593 L104.508745,21.2272593 L104.508745,27.9324444 Z M144.24476,19.9398519 C157.117336,19.9398519 164.672206,28.4465185 164.672206,41.6820741 C164.672206,43.3176296 164.503531,44.6924444 164.414755,44.8642963 L133.857923,44.8642963 C134.115374,51.2257778 139.09277,55.7798519 145.274566,55.7798519 C151.281768,55.7798519 154.374146,52.5976296 155.74722,48.4731852 L164.157303,51.1368889 C161.923098,58.4405926 155.315175,64.3724444 145.274566,64.3724444 C133.940781,64.3724444 123.900171,56.1205926 123.900171,41.9428148 C123.900171,28.7042963 133.683329,19.9398519 144.24476,19.9398519 Z M192.556869,55.2645926 C199.081934,55.2645926 202.085535,50.7075556 203.029524,47.5282963 L211.785835,50.7075556 C209.81204,57.2379259 203.544427,64.3727407 192.556869,64.3727407 C180.285014,64.3727407 170.925023,54.832 170.925023,42.114963 C170.925023,29.2201481 180.285014,19.9401481 192.299418,19.9401481 C203.544427,19.9401481 209.726222,26.9860741 211.442566,33.6912593 L202.514621,36.9564444 C201.570632,33.2616296 198.738665,29.1371852 192.385235,29.1371852 C186.292216,29.1371852 180.885734,33.6912593 180.885734,42.114963 C180.885734,50.5357037 186.292216,55.2645926 192.556869,55.2645926 Z M225.510072,0 C229.114393,0 232.032177,2.92148148 232.032177,6.53333333 C232.032177,10.1422222 229.114393,12.9777778 225.510072,12.9777778 C221.991568,12.9777778 219.070825,10.1422222 219.070825,6.53333333 C219.070825,2.92148148 221.991568,0 225.510072,0 Z M220.618197,63.0820741 L220.618197,21.2272593 L230.490131,21.2272593 L230.490131,63.0820741 L220.618197,63.0820741 Z M266.275301,20.2838519 C278.635933,20.2838519 285.590083,29.7357037 285.590083,42.114963 C285.590083,54.6631111 277.949396,64.114963 265.932032,64.114963 C259.921871,64.114963 255.373561,61.5371852 253.228131,58.3579259 L253.228131,79.4127407 L243.359156,79.4127407 L243.359156,21.229037 L252.97068,21.229037 L252.97068,26.9001481 C255.030292,23.2912593 259.839013,20.2838519 266.275301,20.2838519 Z M312.272418,19.9398519 C325.144994,19.9398519 332.699864,28.4465185 332.699864,41.6820741 C332.699864,43.3176296 332.531189,44.6924444 332.442413,44.8642963 L301.885581,44.8642963 C302.143032,51.2257778 307.120428,55.7798519 313.302224,55.7798519 C319.309426,55.7798519 322.401804,52.5976296 323.774878,48.4731852 L332.184961,51.1368889 C329.950756,58.4405926 323.342833,64.3724444 313.302224,64.3724444 C301.968439,64.3724444 291.927829,56.1205926 291.927829,41.9428148 C291.927829,28.7042963 301.710987,19.9398519 312.272418,19.9398519 Z M342.218173,63.0820741 L342.218173,0.859851852 L352.172965,0.859851852 L352.172965,63.0820741 L342.218173,63.0820741 Z M369.936232,0 C373.540553,0 376.458337,2.92148148 376.458337,6.53333333 C376.458337,10.1422222 373.540553,12.9777778 369.936232,12.9777778 C366.417728,12.9777778 363.496985,10.1422222 363.496985,6.53333333 C363.496985,2.92148148 366.417728,0 369.936232,0 Z M365.042581,63.0820741 L365.042581,21.2272593 L374.914516,21.2272593 L374.914516,63.0820741 L365.042581,63.0820741 Z M405.123048,38.2465185 C413.018228,39.965037 417.140412,44.7798519 417.140412,50.9635556 C417.140412,57.325037 411.988422,64.3739259 401.347093,64.3739259 C389.243912,64.3739259 384.606825,56.4687407 384.091922,51.7398519 L392.762416,49.3339259 C393.102726,53.1146667 395.937652,56.4687407 401.258316,56.4687407 C405.3805,56.4687407 407.525929,54.2317037 407.525929,51.6539259 C407.525929,49.4198519 405.98122,47.7013333 402.631391,47.010963 L396.452555,45.6391111 C389.069319,44.0035556 385.210505,39.1917037 385.210505,33.4317037 C385.210505,26.128 391.901285,19.9383704 400.574738,19.9383704 C412.245874,19.9383704 416.024789,27.5028148 416.711326,31.6272593 L408.298284,34.0361481 C407.955015,31.6272593 406.152854,27.7605926 400.574738,27.7605926 C397.053275,27.7605926 394.564577,29.9946667 394.564577,32.5724444 C394.564577,34.8065185 396.195103,36.4420741 398.772578,36.9576296 L405.123048,38.2465185 Z M444.942513,54.7496296 C446.315587,54.7496296 447.946114,54.4888889 448.3752,54.402963 L448.3752,62.6548148 C447.774479,62.9125926 445.883542,63.597037 442.28218,63.597037 C434.555675,63.597037 429.746955,58.96 429.746955,51.1377778 L429.746955,30.08 L422.023409,30.08 L422.023409,21.2296296 L424.168838,21.2296296 C428.631331,21.2296296 430.605126,18.3911111 430.605126,14.6962963 L430.605126,8.4237037 L439.618889,8.4237037 L439.618889,21.2296296 L448.289382,21.2296296 L448.289382,30.08 L439.618889,30.08 L439.618889,49.5051852 C439.618889,53.2 441.249415,54.7496296 444.942513,54.7496296 Z M302.143032,37.5576296 L322.659255,37.5576296 C322.484662,32.6598519 319.223609,28.2746667 312.355276,28.2746667 C306.090622,28.2746667 302.486301,33.0894815 302.143032,37.5576296 Z M134.115374,37.5576296 L154.631597,37.5576296 C154.457004,32.6598519 151.195951,28.2746667 144.327618,28.2746667 C138.062964,28.2746667 134.458643,33.0894815 134.115374,37.5576296 Z M264.387323,55.2645926 C257.865218,55.2645926 253.142314,50.109037 253.142314,42.114963 C253.142314,34.2927407 257.865218,29.1371852 264.387323,29.1371852 C271.084022,29.1371852 275.632332,34.2927407 275.632332,42.114963 C275.632332,50.109037 270.995245,55.2645926 264.387323,55.2645926"/>
  </g>
</svg>
