<?xml version="1.0" encoding="UTF-8" standalone="no"?>
<svg width="24px" height="24px" viewBox="0 0 24 24" version="1.1" xmlns="http://www.w3.org/2000/svg" xmlns:xlink="http://www.w3.org/1999/xlink">
    <!-- Generator: Sketch 3.8.2 (29753) - http://www.bohemiancoding.com/sketch -->
    <title>logo</title>
    <desc>Created with Sketch.</desc>
    <defs></defs>
    <g id="Page-1" stroke="none" stroke-width="1" fill="none" fill-rule="evenodd">
        <g id="Artboard-1" transform="translate(-370.000000, -24.000000)" fill="#A3BED9">
            <g id="Group-2" transform="translate(360.000000, 0.000000)">
                <path d="M22,24 C15.3729929,24 10,29.372583 10,36 C10,42.6270071 15.372583,48 22,48 C22.1217374,48 22.2430516,47.998187 22.3639172,47.9945865 C20.4888219,47.8917923 19,46.3379527 19,44.437724 L19,27.562276 C19,25.6613415 20.4886988,24.1081717 22.3638838,24.0054122 C22.2430295,24.0018126 22.1217264,24 22,24 L22,24 L22,24 L22,24 L22,24 Z M34,36 L34,24 L22,24 C28.627417,24 34,29.372583 34,36 L34,36 L34,36 L34,36 L34,36 Z M22,36 L34,36 L34,48 C34,41.372583 28.627417,36 22,36 L22,36 L22,36 L22,36 L22,36 L22,36 Z" id="logo"></path>
            </g>
        </g>
    </g>
</svg>