<svg xmlns="http://www.w3.org/2000/svg" width="4200" height="2800" viewBox="0 0 4200 2800" style="background:#121212">
  <g fill="none" fill-rule="evenodd">
    <rect width="4200" height="2800" fill="#4FC6FF"/>
    <rect width="4200" height="2800" fill="#111111"/>
    <g transform="translate(972 1100)">
      <path fill="#FFFFFF" d="M597.75552 303.24384C623.29392 373.40784 588.62352 453.54144 518.71152 478.98864 447.62352 504.86064 370.64832 465.49104 347.50752 401.91504 337.09872 373.31184 349.48512 338.91264 379.11072 328.12944 407.56752 317.77344 439.18512 332.29584 449.63472 361.01184 454.25472 373.70064 468.28752 380.24544 480.97872 375.62544 493.66752 371.00784 500.20992 356.97504 495.59232 344.28624L441.22992 194.92464C432.00672 169.58544 445.11792 141.46464 470.45952 132.24144L516.41472 115.51344C522.75072 113.20704 529.78272 116.49024 532.08912 122.82144L597.75552 303.24384zM499.69152 69.55824L453.73152 86.28624C403.05312 104.73024 376.82592 160.97184 395.27232 211.65264L419.46432 278.11344C400.49472 274.05024 380.78832 275.48304 362.19792 282.24864 307.64352 302.10384 281.78112 364.32144 301.57392 418.69824 333.63312 506.78784 438.46512 560.23824 535.43952 524.94384 630.40032 490.38144 678.41712 381.86784 643.71072 286.51584L578.04432 106.09344C566.51472 74.42064 531.36432 58.02864 499.69152 69.55824L499.69152 69.55824zM882.58224 153.6L905.78544 153.6C911.26704 153.6 915.70944 158.0448 915.70944 163.524L915.70944 348.6504C915.70944 413.7264 876.93744 461.5488 828.92784 460.7904 821.63184 460.6752 815.03424 460.0608 809.41584 459.2496 798.42384 457.6608 790.33104 448.1832 790.33104 437.0784L790.33104 419.1528C790.33104 406.7616 800.38464 396.7248 812.77344 396.7464 844.90944 396.7464 842.88864 359.8848 842.88864 340.1784L842.88864 193.2936C842.88864 171.372 860.65824 153.6 882.58224 153.6M1195.83673 307.20129C1195.83673 252.467691 1160.39614 224.817137 1121.99353 224.817137 1083.59869 224.817137 1048.16068 252.467691 1048.16068 307.20129 1048.16068 361.346744 1083.59869 389.585443 1121.99353 389.585443 1160.39614 389.585443 1195.83673 361.932309 1195.83673 307.20129M1274.4 307.20129C1274.4 396.067936 1208.8292 460.8 1121.99353 460.8 1035.15785 460.8 969.6 396.067936 969.6 307.20129 969.6 217.746499 1035.15785 153.6 1121.99353 153.6 1208.8292 153.6 1274.4 217.746499 1274.4 307.20129M1327.2 414.387311L1327.2 203.712388C1327.2 179.405483 1346.9054 159.699699 1371.21777 159.699699L1393.31049 159.699699C1399.38658 159.699699 1404.31559 164.628141 1404.31559 170.703537L1404.31559 196.122801C1420.71546 166.980594 1458.95788 151.2 1491.74431 151.2 1532.42994 151.2 1565.2217 168.80614 1580.39996 200.987375 1604.07891 164.561613 1635.65705 151.2 1675.12373 151.2 1730.37016 151.2 1783.2 184.586734 1783.2 264.729798L1783.2 447.396162C1783.2 453.474219 1778.27099 458.4 1772.19489 458.4L1748.89387 458.4C1724.58417 458.4 1704.87345 438.696877 1704.87345 414.387311L1704.87345 281.127778C1704.87345 248.946543 1689.08039 224.663589 1652.04627 224.663589 1617.44473 224.663589 1596.79984 251.37883 1596.79984 283.557404L1596.79984 447.396162C1596.79984 453.474219 1591.87083 458.4 1585.79207 458.4L1560.66795 458.4C1536.35558 458.4 1516.64753 438.696877 1516.64753 414.387311L1516.64753 281.127778C1516.64753 248.946543 1500.24766 224.663589 1463.81769 224.663589 1428.60135 224.663589 1407.9538 250.77475 1407.9538 283.557404L1407.9538 447.396162C1407.9538 453.474219 1403.02745 458.4 1396.94869 458.4L1371.21777 458.4C1346.9054 458.4 1327.19734 438.696877 1327.2 414.387311M2062.23932 309.60129C2062.23932 254.867691 2026.79873 227.217137 1988.39353 227.217137 1950.00127 227.217137 1914.56327 254.867691 1914.56327 309.60129 1914.56327 363.746744 1950.00127 391.985443 1988.39353 391.985443 2026.79873 391.985443 2062.23932 364.334889 2062.23932 309.60129M2140.8 309.60129C2140.8 398.467936 2075.2292 463.2 1988.39353 463.2 1901.56044 463.2 1836 398.467936 1836 309.60129 1836 220.146499 1901.56044 156 1988.39353 156 2075.2292 156 2140.8 220.146499 2140.8 309.60129"/>
      <g stroke="#FFFFFF" stroke-width="6" opacity=".5">
        <path d="M724.80096,300 C724.80096,432.5496 617.35056,540 484.80096,540 C352.25136,540 244.80096,432.5496 244.80096,300 C244.80096,167.4504 352.25136,60 484.80096,60 C617.35056,60 724.80096,167.4504 724.80096,300 Z" stroke-dasharray="24.324 24.324"/>
        <path d="M784.80096 300C784.80096 465.684 650.48496 600 484.80096 600 319.11456 600 184.80096 465.684 184.80096 300 184.80096 134.316 319.11456 0 484.80096 0 650.48496 0 784.80096 134.316 784.80096 300zM0 463L2256 463M0 151L2256 151" stroke-dasharray="24.168 24.168"/>
      </g>
    </g>
  </g>
</svg>
