<svg xmlns="http://www.w3.org/2000/svg" width="2100" height="1400" viewBox="0 0 2100 1400" style="background:#121212">
  <g fill="none" fill-rule="evenodd">
    <rect width="2100" height="1400" fill="#4FC6FF"/>
    <rect width="2100" height="1400" fill="#111111"/>
    <g transform="translate(486 550)">
      <path fill="#FFFFFF" d="M298.887062 151.922036C311.655117 187.073192 294.321472 227.218975 259.368607 239.967656 223.827795 252.929157 185.343647 233.205553 173.774284 201.35489 168.570351 187.025097 174.762996 169.791592 189.574467 164.389364 203.801591 159.201157 219.608973 166.47667 224.833305 180.862974 227.143097 187.219881 234.158868 190.498731 240.503899 188.184178 246.84773 185.870826 250.118637 178.840595 247.810044 172.483689L220.631282 97.6556723C216.020095 84.9610971 222.575107 70.8729801 235.244771 66.2522894L258.22031 57.8718017C261.388026 56.7163284 264.90371 58.3611644 266.056807 61.5330047L298.887062 151.922036zM249.85946 34.8489065L226.881521 43.2293943C201.544594 52.4695734 188.43217 80.6458072 197.654542 106.03616L209.749458 139.332066C200.265508 137.296461 190.413192 138.014274 181.118826 141.403742 153.844072 151.350912 140.914032 182.521036 150.809544 209.763032 166.837707 253.894656 219.249006 280.672539 267.731857 262.990552 315.207998 245.675286 339.214245 191.31153 321.862602 143.541548L289.032346 53.152517C283.268063 37.2848991 265.69444 29.0727425 249.85946 34.8489065L249.85946 34.8489065zM440.98639 77L452.552976 77C455.285504 77 457.5 79.2209582 457.5 81.9587809L457.5 174.461931C457.5 206.978822 438.172508 230.87451 414.240156 230.495556 410.603166 230.437993 407.314322 230.130992 404.5136 229.725655 399.034188 228.931771 395 224.196045 395 218.647247L395 209.690262C395 203.498681 400.011629 198.483537 406.187334 198.49433 422.206839 198.49433 421.199489 180.075487 421.199489 170.228679L421.199489 96.8339245C421.199489 85.8802352 430.057474 77 440.98639 77M598.192591 153.750644C598.192591 126.401662 580.460665 112.585386 561.246761 112.585386 542.036744 112.585386 524.306114 126.401662 524.306114 153.750644 524.306114 180.805746 542.036744 194.915903 561.246761 194.915903 580.460665 194.915903 598.192591 181.098338 598.192591 153.750644M637.5 153.750644C637.5 198.15504 604.693088 230.5 561.246761 230.5 517.800435 230.5 485 198.15504 485 153.750644 485 109.052368 517.800435 77 561.246761 77 604.693088 77 637.5 109.052368 637.5 153.750644M663.5 207.007983L663.5 101.7391C663.5 89.5935602 673.352698 79.7470829 685.508883 79.7470829L696.555243 79.7470829C699.593291 79.7470829 702.057796 82.2096995 702.057796 85.2454197L702.057796 97.9467771C710.257732 83.3851601 729.378939 75.5 745.772157 75.5 766.114971 75.5 782.51085 84.2973389 790.099982 100.377481 801.939455 82.1764568 817.728523 75.5 837.461864 75.5 865.085082 75.5 891.5 92.182499 891.5 132.227943L891.5 223.501663C891.5 226.538713 889.035495 229 885.997447 229L874.346937 229C862.192083 229 852.336723 219.154852 852.336723 207.007983L852.336723 140.421595C852.336723 124.341453 844.440193 112.20788 825.923136 112.20788 808.622363 112.20788 798.299918 125.556805 798.299918 141.635617L798.299918 223.501663C798.299918 226.538713 795.835413 229 792.796034 229L780.233977 229C768.077792 229 758.223763 219.154852 758.223763 207.007983L758.223763 140.421595C758.223763 124.341453 750.023828 112.20788 731.808845 112.20788 714.200674 112.20788 703.876899 125.254961 703.876899 141.635617L703.876899 223.501663C703.876899 226.538713 701.413725 229 698.374346 229L685.508883 229C673.352698 229 663.498669 219.154852 663.5 207.007983M1031.19389 154.750644C1031.19389 127.401662 1013.46196 113.585386 994.246761 113.585386 975.038039 113.585386 957.307409 127.401662 957.307409 154.750644 957.307409 181.805746 975.038039 195.915903 994.246761 195.915903 1013.46196 195.915903 1031.19389 182.099627 1031.19389 154.750644M1070.5 154.750644C1070.5 199.15504 1037.69309 231.5 994.246761 231.5 950.80173 231.5 918 199.15504 918 154.750644 918 110.052368 950.80173 78 994.246761 78 1037.69309 78 1070.5 110.052368 1070.5 154.750644"/>
      <g stroke="#FFFFFF" stroke-width="3" opacity=".5">
        <path d="M362.40048,150 C362.40048,216.2748 308.67528,270 242.40048,270 C176.12568,270 122.40048,216.2748 122.40048,150 C122.40048,83.7252 176.12568,30 242.40048,30 C308.67528,30 362.40048,83.7252 362.40048,150 Z" stroke-dasharray="12.162 12.162"/>
        <path d="M392.40048 150C392.40048 232.842 325.24248 300 242.40048 300 159.55728 300 92.40048 232.842 92.40048 150 92.40048 67.158 159.55728 0 242.40048 0 325.24248 0 392.40048 67.158 392.40048 150zM0 231.5L1128 231.5M0 75.5L1128 75.5" stroke-dasharray="12.084 12.084"/>
      </g>
    </g>
  </g>
</svg>
