<svg xmlns="http://www.w3.org/2000/svg" width="960" height="372" viewBox="0 0 960 372" style="background:#fff">
  <defs>
    <linearGradient id="a" x1="100%" x2="0%" y1="100%" y2="0%">
      <stop stop-color="#FFFFFF" offset="0%"/>
      <stop stop-color="#F8FDFF" offset="100%"/>
    </linearGradient>
  </defs>
  <g fill="none" fill-rule="evenodd">
    <rect width="960" height="372" fill="#FFFFFF"/>
    <polygon fill="url(#a)" points="0 0 960 372 0 372" transform="matrix(-1 0 0 1 960 0)"/>
    <g transform="translate(60 120)">
      <g transform="translate(280 24)">
        <path fill="#CCECFF" fill-rule="nonzero" d="M115.524555,46.9205717 C113.923123,41.766266 100.174317,42.0519595 102.58479,48.1667867 C104.677915,53.4747758 117.602009,53.6077711 115.524555,46.9205717 C115.014252,45.2753709 116.225855,49.1755804 115.524555,46.9205717 Z M7.08666149,60.9829993 C11.2474458,64.3975298 22.563251,56.5389869 17.2016378,52.7727578 C12.5472011,49.5020592 1.68978735,56.5547493 7.08666149,60.9829993 C8.41482144,62.0725754 5.26680811,59.4895117 7.08666149,60.9829993 Z M5.99572893,74.8867193 C7.61479117,76.2156869 12.0204427,73.1567956 9.93319427,71.6908921 C8.12117664,70.4170929 3.89476794,73.1627065 5.99572893,74.8867193 C6.51288856,75.311319 5.28757285,74.3054807 5.99572893,74.8867193 Z M124.929024,38.3500607 C124.556826,36.3590722 119.29316,35.8004921 119.929815,38.1865258 C120.482235,40.2592817 125.411903,40.9331245 124.929024,38.3500607 C124.810509,37.7136537 125.091616,39.2209335 124.929024,38.3500607 Z M122.496611,52.9098907 C122.690546,54.9264931 127.882711,55.955975 127.46056,53.5216689 C127.094239,51.4085218 122.244888,50.294317 122.496611,52.9098907 C122.558318,53.5531937 122.411397,52.0271961 122.496611,52.9098907 Z M0.398651329,48.4569134 C1.75521588,49.9543416 6.52522987,47.6490902 4.73671949,45.9536468 C3.18524061,44.4828176 -1.36145445,46.5141972 0.398651329,48.4569134 C0.831576623,48.9347112 -0.19490688,47.8017885 0.398651329,48.4569134 Z M127.938149,19.8376112 C129.74429,29.755118 91.394161,34.4877795 91.394161,47.2001573 C91.394161,59.9135203 118.781093,55.739439 113.782863,72.0505704 C108.573068,89.048352 78.2633997,78.462913 65.4441096,78.761413 C52.5219752,79.061884 22.3445356,91.113226 17.1180891,73.1756119 C13.2864064,60.0238571 32.2763512,60.1844366 31.9296191,50.8511238 C31.4545767,38.0343201 11.6056376,47.2198603 6.15783105,35.6423755 C-0.293931195,21.9330256 24.749132,10.7003434 43.0025161,7.4326002 C63.456767,3.7698119 124.020273,-1.6849646 127.938149,19.8376112 Z"/>
        <g transform="translate(31)">
          <path fill="#FF8C90" fill-rule="nonzero" d="M44.4336,66.8 L23.6336,66.8 C23.6336,66.8 0.4336,52.4 0.4336,27.6 C0.4336,12.5776 15.4768,0.4 34.0336,0.4 C52.5904,0.4 67.6336,12.5776 67.6336,27.6 C67.6336,52.4 44.4336,66.8 44.4336,66.8"/>
          <path stroke="#3A4759" stroke-width="3" d="M44.4336,66.8 L23.6336,66.8 C23.6336,66.8 0.4336,52.4 0.4336,27.6 C0.4336,12.5776 15.4768,0.4 34.0336,0.4 C52.5904,0.4 67.6336,12.5776 67.6336,27.6 C67.6336,52.4 44.4336,66.8 44.4336,66.8" stroke-linecap="round" stroke-linejoin="round"/>
          <path fill="#FFAD8C" fill-rule="nonzero" d="M41.95784,66.8 L26.10984,66.8 C26.10984,66.8 8.43384,52.4 8.43384,27.6 C8.43384,12.5776 19.89544,0.4 34.03384,0.4 C48.17304,0.4 59.63384,12.5776 59.63384,27.6 C59.63384,52.4 41.95784,66.8 41.95784,66.8"/>
          <path stroke="#3A4759" stroke-width="3" d="M41.95784,66.8 L26.10984,66.8 C26.10984,66.8 8.43384,52.4 8.43384,27.6 C8.43384,12.5776 19.89544,0.4 34.03384,0.4 C48.17304,0.4 59.63384,12.5776 59.63384,27.6 C59.63384,52.4 41.95784,66.8 41.95784,66.8" stroke-linecap="round" stroke-linejoin="round"/>
          <path fill="#FFD073" fill-rule="nonzero" d="M37.99608,66.8 L30.07208,66.8 C30.07208,66.8 21.23368,52.4 21.23368,27.6 C21.23368,12.5776 26.96408,0.4 34.03368,0.4 C41.10328,0.4 46.83368,12.5776 46.83368,27.6 C46.83368,52.4 37.99608,66.8 37.99608,66.8"/>
          <path stroke="#3A4759" stroke-width="3" d="M37.99608,66.8 L30.07208,66.8 C30.07208,66.8 21.23368,52.4 21.23368,27.6 C21.23368,12.5776 26.96408,0.4 34.03368,0.4 C41.10328,0.4 46.83368,12.5776 46.83368,27.6 C46.83368,52.4 37.99608,66.8 37.99608,66.8" stroke-linecap="round" stroke-linejoin="round"/>
          <path fill="#FFFFFF" fill-rule="nonzero" d="M40.62264,72.4 L27.44504,72.4 C25.67704,72.4 24.24504,70.9672 24.24504,69.2 L24.24504,66.8 L43.82264,66.8 L43.82264,69.2 C43.82264,70.9672 42.39064,72.4 40.62264,72.4"/>
          <path stroke="#3A4759" stroke-width="3" d="M40.62264,72.4 L27.44504,72.4 C25.67704,72.4 24.24504,70.9672 24.24504,69.2 L24.24504,66.8 L43.82264,66.8 L43.82264,69.2 C43.82264,70.9672 42.39064,72.4 40.62264,72.4 Z" stroke-linecap="round" stroke-linejoin="round"/>
          <polygon fill="#B2AFAA" fill-rule="nonzero" points="29.845 87.6 38.222 87.6 38.222 79.6 29.845 79.6"/>
          <polygon stroke="#3A4759" stroke-width="1.6" points="29.845 87.6 38.222 87.6 38.222 79.6 29.845 79.6" stroke-linecap="round" stroke-linejoin="round"/>
          <path fill="#B2AFAA" fill-rule="nonzero" d="M38.22264,82.8 L29.84504,82.8 C29.40344,82.8 29.04504,82.4424 29.04504,82 L29.04504,80.4 C29.04504,79.9576 29.40344,79.6 29.84504,79.6 L38.22264,79.6 C38.66504,79.6 39.02264,79.9576 39.02264,80.4 L39.02264,82 C39.02264,82.4424 38.66504,82.8 38.22264,82.8"/>
          <path stroke="#3A4759" stroke-width="1.6" d="M38.22264,82.8 L29.84504,82.8 C29.40344,82.8 29.04504,82.4424 29.04504,82 L29.04504,80.4 C29.04504,79.9576 29.40344,79.6 29.84504,79.6 L38.22264,79.6 C38.66504,79.6 39.02264,79.9576 39.02264,80.4 L39.02264,82 C39.02264,82.4424 38.66504,82.8 38.22264,82.8 Z" stroke-linecap="round" stroke-linejoin="round"/>
          <polygon stroke="#3A4759" stroke-width="1.6" points="34.034 79.6 27.267 72.4 40.801 72.4" stroke-linecap="round" stroke-linejoin="round"/>
          <path stroke="#3A4759" stroke-width=".8" d="M33.04496,83.6 C33.04496,85.3672 31.61216,86.8 29.84496,86.8 M35.02304,83.6 C35.02304,85.3672 36.45584,86.8 38.22304,86.8" stroke-linecap="round" stroke-linejoin="round"/>
        </g>
      </g>
      <g transform="translate(0 30)">
        <path fill="#FFE6E8" fill-rule="nonzero" d="M115.524555,42.9206702 C113.923123,37.7663645 100.174316,38.052058 102.584789,44.1668852 C104.677915,49.4748743 117.602008,49.6078696 115.524555,42.9206702 C115.014251,41.2754694 116.225854,45.1756789 115.524555,42.9206702 Z M7.0865599,56.9830978 C11.2473443,60.3976283 22.5641294,52.5390854 17.2015365,48.7728563 C12.5470997,45.5021577 1.68870613,52.5548478 7.0865599,56.9830978 C8.41471989,58.0726739 5.26768593,55.4896102 7.0865599,56.9830978 Z M5.99611704,70.8868178 C7.61517933,72.215785 12.0198515,69.1568941 9.9335825,67.6909906 C8.12156481,66.4171915 3.89417652,69.162805 5.99611704,70.8868178 C6.51229721,71.3114175 5.28698147,70.3055792 5.99611704,70.8868178 Z M124.928926,34.3501592 C124.556728,32.3591707 119.293062,31.8005906 119.929717,34.1866243 C120.482137,36.2593803 125.411805,36.933223 124.928926,34.3501592 C124.810411,33.7137522 125.091518,35.221032 124.928926,34.3501592 Z M122.496513,48.9099892 C122.690448,50.9265916 127.882613,51.9560735 127.460462,49.5217675 C127.094141,47.4086203 122.24479,46.2944155 122.496513,48.9099892 C122.55822,49.5532923 122.411299,48.0272946 122.496513,48.9099892 Z M0.398647482,44.4570119 C1.75521208,45.9544402 6.5252262,43.6491887 4.73769524,41.9537453 C3.18523685,40.4829161 -1.36145835,42.5142957 0.398647482,44.4570119 C0.831572789,44.9348097 -0.194910744,43.801887 0.398647482,44.4570119 Z M127.938149,15.8376112 C129.74429,25.755118 91.3941599,30.4877795 91.3941599,43.2001573 C91.3941599,55.9135203 118.781093,51.739439 113.782863,68.0505704 C108.573067,85.048352 78.2633983,74.462913 65.4441077,74.761413 C52.5219729,75.061884 22.3435529,87.113226 17.1180857,69.1756119 C13.2864029,56.0238571 32.2763483,56.1844366 31.9296162,46.8511238 C31.4535943,34.0343201 11.6056341,43.2198603 6.15782738,31.6423755 C-0.293935062,17.9330256 24.7481494,6.7003434 43.0025135,3.4326002 C63.4567651,-0.2301881 124.020273,-5.6849646 127.938149,15.8376112 Z"/>
        <polygon fill="#665E5F" fill-rule="nonzero" points="23.135 70.834 107.549 70.834 107.549 14.557 23.135 14.557"/>
        <path stroke="#3A4759" stroke-width="4" d="M23.135,67.8277535 C23.135,69.4877814 24.4779863,70.8335 26.139339,70.8335 L104.544661,70.8335 C106.203912,70.8335 107.549,69.4979064 107.549,67.8277535 L107.549,17.5632465 C107.549,15.9032186 106.206014,14.5575 104.544661,14.5575 L26.139339,14.5575 C24.4800884,14.5575 23.135,15.8930936 23.135,17.5632465 L23.135,67.8277535 Z" stroke-linecap="round" stroke-linejoin="round"/>
        <polygon stroke="#3A4759" stroke-width="4" points="50.101 14.557 80.583 14.557 80.583 2.834 50.101 2.834" stroke-linecap="round" stroke-linejoin="round"/>
        <polygon fill="#7A7475" fill-rule="nonzero" points="38.376 70.834 50.101 70.834 50.101 14.557 38.376 14.557"/>
        <polygon stroke="#3A4759" stroke-width="4" points="38.376 70.834 50.101 70.834 50.101 14.557 38.376 14.557" stroke-linecap="round" stroke-linejoin="round"/>
        <polygon fill="#7A7475" fill-rule="nonzero" points="80.583 70.834 92.308 70.834 92.308 14.557 80.583 14.557"/>
        <polygon stroke="#3A4759" stroke-width="4" points="80.583 70.834 92.308 70.834 92.308 14.557 80.583 14.557" stroke-linecap="round" stroke-linejoin="round"/>
      </g>
      <g transform="translate(140 16)">
        <path fill="#E6E6FF" fill-rule="nonzero" d="M115.524555,56.9206702 C113.923123,51.7663645 100.174316,52.052058 102.584789,58.1668852 C104.677915,63.4748743 117.602008,63.6078696 115.524555,56.9206702 C115.014251,55.2754694 116.225854,59.1756789 115.524555,56.9206702 Z M7.0865599,70.9830978 C11.2473443,74.3976283 22.5641294,66.5390854 17.2015365,62.7728563 C12.5470997,59.5021577 1.68870613,66.5548478 7.0865599,70.9830978 C8.41471989,72.0726739 5.26768593,69.4896102 7.0865599,70.9830978 Z M5.99611704,84.8868178 C7.61517933,86.215785 12.0198515,83.1568941 9.9335825,81.6909906 C8.12156481,80.4171915 3.89417652,83.162805 5.99611704,84.8868178 C6.51229721,85.3114175 5.28698147,84.3055792 5.99611704,84.8868178 Z M124.928926,48.3501592 C124.556728,46.3591707 119.293062,45.8005906 119.929717,48.1866243 C120.482137,50.2593803 125.411805,50.933223 124.928926,48.3501592 C124.810411,47.7137522 125.091518,49.221032 124.928926,48.3501592 Z M122.496513,62.9099892 C122.690448,64.9265916 127.882613,65.9560735 127.460462,63.5217675 C127.094141,61.4086203 122.24479,60.2944155 122.496513,62.9099892 C122.55822,63.5532923 122.411299,62.0272946 122.496513,62.9099892 Z M0.398647482,58.4570119 C1.75521208,59.9544402 6.5252262,57.6491887 4.73769524,55.9537453 C3.18523685,54.4829161 -1.36145835,56.5142957 0.398647482,58.4570119 C0.831572789,58.9348097 -0.194910744,57.801887 0.398647482,58.4570119 Z M127.938149,29.8376112 C129.74429,39.755118 91.3941599,44.4877795 91.3941599,57.2001573 C91.3941599,69.9135203 118.781093,65.739439 113.782863,82.0505704 C108.573067,99.048352 78.2633983,88.462913 65.4441077,88.761413 C52.5219729,89.061884 22.3435529,101.113226 17.1180857,83.1756119 C13.2864029,70.0238571 32.2763483,70.1844366 31.9296162,60.8511238 C31.4535943,48.0343201 11.6056341,57.2198603 6.15782738,45.6423755 C-0.293935062,31.9330256 24.7481494,20.7003434 43.0025135,17.4326002 C63.4567651,13.7698119 124.020273,8.3150354 127.938149,29.8376112 Z"/>
        <path fill="#F7FAFC" fill-rule="nonzero" d="M57.3601,84.325 C53.5011,84.325 50.3601,81.184 50.3601,77.325 L50.3601,29.325 C50.3601,25.465 53.5011,22.325 57.3601,22.325 L74.3601,22.325 C78.2191,22.325 81.3601,25.465 81.3601,29.325 L81.3601,77.325 C81.3601,81.184 78.2191,84.325 74.3601,84.325 L57.3601,84.325 Z"/>
        <path fill="#3A4759" fill-rule="nonzero" stroke="#3A4759" d="M74.3601,21.325 L57.3601,21.325 C52.9421,21.325 49.3601,24.907 49.3601,29.325 L49.3601,77.325 C49.3601,81.743 52.9421,85.325 57.3601,85.325 L74.3601,85.325 C78.7781,85.325 82.3601,81.743 82.3601,77.325 L82.3601,29.325 C82.3601,24.907 78.7781,21.325 74.3601,21.325 M74.3601,23.325 C77.6691,23.325 80.3601,26.016 80.3601,29.325 L80.3601,77.325 C80.3601,80.634 77.6691,83.325 74.3601,83.325 L57.3601,83.325 C54.0511,83.325 51.3601,80.634 51.3601,77.325 L51.3601,29.325 C51.3601,26.016 54.0511,23.325 57.3601,23.325 L74.3601,23.325"/>
        <g transform="translate(49 76.325)">
          <path fill="#FFFFFF" fill-rule="nonzero" d="M0.3601,0 L33.3601,0"/>
          <path stroke="#3A4759" stroke-width="3" d="M0.3601,0 L33.3601,0"/>
        </g>
        <g transform="translate(49 30.325)">
          <path fill="#FFFFFF" fill-rule="nonzero" d="M0.3601,0 L33.3601,0"/>
          <path stroke="#3A4759" stroke-width="3" d="M0.3601,0 L33.3601,0"/>
        </g>
        <path stroke="#8C8CFF" stroke-width="2" d="M109.3601,39.325 C109.3601,40.429 108.4641,41.325 107.3601,41.325 C106.2561,41.325 105.3601,40.429 105.3601,39.325 C105.3601,38.221 106.2561,37.325 107.3601,37.325 C108.4641,37.325 109.3601,38.221 109.3601,39.325 Z M35.3601,73.325 C35.3601,74.982 34.0171,76.325 32.3601,76.325 C30.7031,76.325 29.3601,74.982 29.3601,73.325 C29.3601,71.668 30.7031,70.325 32.3601,70.325 C34.0171,70.325 35.3601,71.668 35.3601,73.325 Z M101.3601,63.325 C101.3601,64.982 100.0171,66.325 98.3601,66.325 C96.7031,66.325 95.3601,64.982 95.3601,63.325 C95.3601,61.668 96.7031,60.325 98.3601,60.325 C100.0171,60.325 101.3601,61.668 101.3601,63.325 Z M56.3601,103.325 C56.3601,104.429 55.4641,105.325 54.3601,105.325 C53.2561,105.325 52.3601,104.429 52.3601,103.325 C52.3601,102.221 53.2561,101.325 54.3601,101.325 C55.4641,101.325 56.3601,102.221 56.3601,103.325 Z" stroke-linecap="round" stroke-linejoin="round"/>
        <polygon stroke="#8C8CFF" stroke-width="2" points="72.536 0 74.304 3.232 77.536 5 74.304 6.768 72.536 10 70.767 6.768 67.536 5 70.767 3.232" stroke-linecap="round" stroke-linejoin="round"/>
        <polygon stroke="#8C8CFF" stroke-width="2" points="105.536 79.001 107.304 82.232 110.536 84.001 107.304 85.769 105.536 89.001 103.767 85.769 100.536 84.001 103.767 82.232" stroke-linecap="round" stroke-linejoin="round"/>
        <polygon stroke="#8C8CFF" stroke-width="2" points="30.503 95.818 28.128 95.149 25.754 94.479 27.521 92.757 29.288 91.036 29.896 93.427" stroke-linecap="round" stroke-linejoin="round"/>
        <polygon stroke="#8C8CFF" stroke-width="2" points="105.501 10.129 102.868 12.297 100.236 14.466 99.675 11.102 99.112 7.738 102.307 8.934" stroke-linecap="round" stroke-linejoin="round"/>
        <polygon stroke="#8C8CFF" stroke-width="2" points="24 46 25.768 49.232 29 51 25.768 52.768 24 56 22.232 52.768 19 51 22.232 49.232" stroke-linecap="round" stroke-linejoin="round"/>
        <path stroke="#8C8CFF" stroke-width="2" d="M27.3601,19.325 L33.3601,19.325 M30.3601,16.325 L30.3601,22.325 M83.3601,97.325 L89.3601,97.325 M86.3601,94.325 L86.3601,100.325" stroke-linecap="round" stroke-linejoin="round"/>
      </g>
      <g transform="translate(708)">
        <rect width="132" height="132" opacity=".5"/>
        <g fill="#CCECFF" transform="translate(0 26)">
          <path d="M118.81 43.73C117.17 38.5 103.14 38.79 105.6 44.99 107.74 50.38 120.93 50.51 118.81 43.73zM8.1 58C12.35 61.46 23.9 53.49 18.43 49.66 13.67 46.35 2.59 53.51 8.1 58zM7 72.12C8.65 73.47 13.15 70.36 11 68.88 9.15 67.59 4.84 70.37 7 72.12zM128.41 35C128.03 33 122.66 32.41 123.31 34.83 123.87 36.93 128.91 37.62 128.41 35zM125.93 49.81C126.13 51.81 131.43 52.9 131 50.43 130.63 48.28 125.67 47.15 125.93 49.81zM1.27 45.29C2.65 46.81 7.53 44.47 5.7 42.75 4.12 41.26-.53 43.32 1.27 45.29z"/>
          <path fill-rule="nonzero" d="M131.48,16.24 C127.48,-5.61 65.65,-0.07 44.76,3.65 C26.13,7 0.56,18.37 7.15,32.29 C12.71,44 33,34.71 33.46,47.72 C33.81,57.19 14.46,57.03 18.34,70.38 C23.68,88.59 54.49,76.38 67.68,76.05 C80.87,75.72 111.68,86.49 117.03,69.24 C122.13,52.69 94.17,56.92 94.17,44 C94.17,31.08 133.33,26.31 131.48,16.24 Z"/>
        </g>
        <path fill="#66DBFF" fill-rule="nonzero" stroke="#3A4759" stroke-width="2" d="M60.47 70.68C61.8124754 70.6934083 63.0339242 71.4588526 63.6313702 72.661133 64.2288162 73.8634135 64.1012332 75.2992284 63.3011582 76.3773286 62.5010832 77.4554288 61.1638062 77.9935109 59.84 77.77M30.53 70.68C29.1875246 70.6934083 27.9660758 71.4588526 27.3686298 72.661133 26.7711838 73.8634135 26.8987668 75.2992284 27.6988418 76.3773286 28.4989168 77.4554288 29.8361938 77.9935109 31.16 77.77" stroke-linecap="round" stroke-linejoin="round"/>
        <path stroke="#3A4759" stroke-width="2" d="M60.47 67.71L60.47 70.68M33.13 54.06C33.1406985 54.8994611 33.29283 55.731113 33.58 56.52" stroke-linecap="round" stroke-linejoin="round"/>
        <path fill="#80DBFF" fill-rule="nonzero" stroke="#3A4759" stroke-width="2" d="M33.57,56.52 L33.57,56.52 C31.9131458,56.52 30.57,57.8631458 30.57,59.52 L30.57,73.47 C31.0704081,81.3702743 37.6238935,87.5217912 45.54,87.5217912 C53.4561065,87.5217912 60.0095919,81.3702743 60.51,73.47 L60.51,59.55 C60.51,57.8931458 59.1668542,56.55 57.51,56.55 L56.65,56.55 C56.5387304,58.8687109 54.6263792,60.6914934 52.305,60.6914934 C49.9836208,60.6914934 48.0712696,58.8687109 47.96,56.55 C46.9533203,59.6592704 44.0168713,61.7322976 40.75,61.64 C37.5021142,61.6629769 34.6065039,59.5981406 33.57,56.52 L33.57,56.52 Z" stroke-linecap="round" stroke-linejoin="round"/>
        <path fill="#4FC6FF" fill-rule="nonzero" stroke="#3A4759" stroke-width="2" d="M30.53,60.82 L30.53,59.55 C30.53,57.8931458 31.8731458,56.55 33.53,56.55 L33.53,56.55 C34.5674527,59.5883382 37.4194305,61.632925 40.63,61.64 C43.8968713,61.7322976 46.8333203,59.6592704 47.84,56.55 C47.9512696,58.8687109 49.8636208,60.6914934 52.185,60.6914934 C54.5063792,60.6914934 56.4187304,58.8687109 56.53,56.55 L57.39,56.55 C59.0468542,56.55 60.39,57.8931458 60.39,59.55 L60.39,67.71 C63.0919399,65.3818764 64.3956247,61.8206352 63.8353935,58.2983093 C63.2751624,54.7759834 60.9309193,51.7949505 57.64,50.42 C56.7549647,48.2262915 54.9562567,46.5283312 52.7152296,45.7710716 C50.4742026,45.0138121 48.014248,45.2727389 45.98,46.48 C41.8927929,42.9248208 35.7826615,43.0233849 31.81225,46.7085435 C27.8418386,50.393702 27.2888421,56.4795557 30.53,60.82 L30.53,60.82 Z" stroke-linecap="round" stroke-linejoin="round"/>
        <path fill="#22BDFF" fill-rule="nonzero" stroke="#3A4759" stroke-width="2" d="M110.61,67.73 C110.400417,65.7132616 109.094395,63.9770646 107.214832,63.2165381 C105.335268,62.4560116 103.189378,62.7954633 101.63632,64.0989854 C100.083262,65.4025075 99.3768832,67.4570398 99.8,69.44 C97.5866104,71.8853216 97.024479,75.4063141 98.3664493,78.4192539 C99.7084196,81.4321937 102.701728,83.3695852 106,83.36 C110.6,83.36 113.87,81.58 115.28,78.97 C107.55,79 110.61,71.35 110.61,67.73 Z" stroke-linecap="round" stroke-linejoin="round"/>
        <path fill="#66DBFF" fill-rule="nonzero" stroke="#3A4759" stroke-width="2" d="M104.09 70.68C105.432475 70.6934083 106.653924 71.4588526 107.25137 72.661133 107.848816 73.8634135 107.721233 75.2992284 106.921158 76.3773286 106.121083 77.4554288 104.783806 77.9935109 103.46 77.77M74.15 70.68C72.8075246 70.6934083 71.5860758 71.4588526 70.9886298 72.661133 70.3911838 73.8634135 70.5187668 75.2992284 71.3188418 76.3773286 72.1189168 77.4554288 73.4561938 77.9935109 74.78 77.77" stroke-linecap="round" stroke-linejoin="round"/>
        <path stroke="#3A4759" stroke-width="2" d="M104.09 67.71L104.09 70.68M76.75 54.06C76.7606985 54.8994611 76.91283 55.731113 77.2 56.52" stroke-linecap="round" stroke-linejoin="round"/>
        <path fill="#80DBFF" fill-rule="nonzero" stroke="#3A4759" stroke-width="2" d="M77.2,56.52 L77.2,56.52 C75.5431458,56.52 74.2,57.8631458 74.2,59.52 L74.2,73.47 C74.7004081,81.3702743 81.2538935,87.5217912 89.17,87.5217912 C97.0861065,87.5217912 103.639592,81.3702743 104.14,73.47 L104.14,59.55 C104.14,57.8931458 102.796854,56.55 101.14,56.55 L77.2,56.55 L77.2,56.52 Z" stroke-linecap="round" stroke-linejoin="round"/>
        <path fill="#4FC6FF" fill-rule="nonzero" stroke="#3A4759" stroke-width="2" d="M89.51,46.56 C78.11,46.56 74.15,51.45 74.15,55.29 L74.15,59.56 C74.15,57.9031458 75.4931458,56.56 77.15,56.56 L77.15,56.56 C78.15,59.56 82.64,62.56 85.95,62.56 C93.15,62.56 98.48,56.69 98.48,56.69 C98.48,56.69 99.48,63.25 104.05,63.25 C104.09,63.17 108.29,46.56 89.51,46.56 Z" stroke-linecap="round" stroke-linejoin="round"/>
        <circle cx="35.57" cy="99.28" r="2" stroke="#4FC6FF" stroke-width="2" stroke-linecap="round" stroke-linejoin="round"/>
        <circle cx="118.31" cy="52.86" r="2" stroke="#4FC6FF" stroke-width="2" stroke-linecap="round" stroke-linejoin="round"/>
        <polygon stroke="#4FC6FF" stroke-width="2" points="40.68 35.47 38.56 32.79 36.44 30.12 39.82 29.62 43.19 29.12 41.94 32.3" stroke-linecap="round" stroke-linejoin="round"/>
        <polygon stroke="#4FC6FF" stroke-width="2" points="101 107.91 98.53 105.56 96.05 103.22 99.32 102.25 102.59 101.28 101.8 104.59" stroke-linecap="round" stroke-linejoin="round"/>
        <polygon stroke="#4FC6FF" stroke-width="2" points="68.5 90.98 69.14 92.16 70.33 92.8 69.14 93.45 68.5 94.63 67.86 93.45 66.67 92.8 67.86 92.16" stroke-linecap="round" stroke-linejoin="round"/>
        <polygon stroke="#4FC6FF" stroke-width="2" points="105.39 35.12 106.03 36.3 107.21 36.95 106.03 37.59 105.39 38.77 104.74 37.59 103.56 36.95 104.74 36.3" stroke-linecap="round" stroke-linejoin="round"/>
        <path stroke="#4FC6FF" stroke-width="2" d="M15.28 55.15L19.66 51.05M15.42 50.91L19.52 55.29M71.79 35.9L77.79 36.1M74.89 33L74.69 39" stroke-linecap="round" stroke-linejoin="round"/>
      </g>
      <g transform="translate(564)">
        <rect width="132" height="132" opacity=".5"/>
        <path fill="#B8FFD0" d="M118.6 69.73C117 64.5 102.93 64.79 105.39 71 107.53 76.39 120.72 76.52 118.6 69.74L118.6 69.73zM7.89 84C12.14 87.46 23.69 79.49 18.22 75.66 13.47 72.35 2.38 79.51 7.89 84zM6.78 98.12C8.43 99.47 12.93 96.36 10.78 94.88 8.93 93.59 4.62 96.37 6.78 98.12zM128.21 61C127.83 59 122.46 58.41 123.11 60.83 123.67 62.93 128.71 63.62 128.21 61zM125.72 75.81C125.92 77.81 131.22 78.9 130.79 76.43 130.42 74.28 125.46 73.15 125.72 75.81zM1.07 71.29C2.45 72.81 7.33 70.47 5.5 68.75 3.92 67.26-.73 69.32 1.07 71.29z"/>
        <path fill="#B8FFD0" fill-rule="nonzero" d="M131.28,42.24 C127.28,20.39 65.45,25.93 44.56,29.65 C25.93,33 0.36,44.37 6.94,58.29 C12.51,70 32.77,60.71 33.26,73.72 C33.61,83.19 14.26,83.03 18.14,96.38 C23.48,114.59 54.29,102.38 67.48,102.05 C80.67,101.72 111.48,112.49 116.83,95.24 C121.93,78.69 94,82.92 94,70 C94,57.08 133.12,52.31 131.28,42.24 Z"/>
        <rect width="5.33" height="4.41" x="63.28" y="17.31" stroke="#3A4759" stroke-width="2" stroke-linecap="round" stroke-linejoin="round"/>
        <rect width="2.58" height="4.13" x="64.66" y="13.18" stroke="#3A4759" stroke-width="2" stroke-linecap="round" stroke-linejoin="round"/>
        <rect width="12.07" height="3.21" x="84.6" y="110.68" stroke="#3A4759" stroke-width="2" stroke-linecap="round" stroke-linejoin="round"/>
        <path stroke="#3A4759" stroke-width="2" d="M68.61 21.71C68.61 21.71 65.94 79.04 96.67 110.71M65.94 21.71C65.94 21.71 65.94 84.1 84.6 110.71M80.82 104.56C76.9919168 100.265188 71.4716906 97.8669966 65.72 98" stroke-linecap="round" stroke-linejoin="round"/>
        <rect width="12.07" height="3.21" x="35.22" y="110.68" stroke="#3A4759" stroke-width="2" stroke-linecap="round" stroke-linejoin="round" transform="rotate(-180 41.255 112.285)"/>
        <path stroke="#3A4759" stroke-width="2" d="M63.28 21.71C63.28 21.71 65.95 79.04 35.22 110.71M65.94 21.71C65.94 21.71 65.94 84.1 47.28 110.71M51.07 104.56C54.8980832 100.265188 60.4183094 97.8669966 66.17 98" stroke-linecap="round" stroke-linejoin="round"/>
        <rect width="37.39" height="5.02" x="47.21" y="87.56" fill="#B6FFDA" fill-rule="nonzero" stroke="#3A4759" stroke-width="2" stroke-linecap="round" stroke-linejoin="round" rx="2.51"/>
        <rect width="22.82" height="5.96" x="54.54" y="66.31" fill="#B6FFDA" fill-rule="nonzero" stroke="#3A4759" stroke-width="2" stroke-linecap="round" stroke-linejoin="round" rx="2.98"/>
        <path stroke="#3A4759" stroke-width="2" d="M65.94,13.17 L65.94,7.22" stroke-linecap="round" stroke-linejoin="round"/>
        <ellipse cx="19.37" cy="84.61" stroke="#3A4759" stroke-width="2" stroke-linecap="round" stroke-linejoin="round" rx="7.17" ry="8"/>
        <path stroke="#3A4759" stroke-width="2" d="M19 101.71L19 80.38M19.37 90.14L22.79 85.93M16.21 82.95L19.37 87.48" stroke-linecap="round" stroke-linejoin="round"/>
        <ellipse cx="112.52" cy="93.73" stroke="#3A4759" stroke-width="2" stroke-linecap="round" stroke-linejoin="round" rx="7.17" ry="8"/>
        <path stroke="#3A4759" stroke-width="2" d="M112 110.84L112 89.5M112.52 99.27L115.93 95.06M109.35 92.07L112.52 96.61M88.75 31.47C88.7584041 28.1386721 90.8556562 25.1706189 93.9929173 24.0501685 97.1301784 22.9297181 100.633154 23.89769 102.75 26.47 103.718386 23.4235471 106.42927 21.2624558 109.61492 20.9973501 112.800571 20.7322444 115.831378 22.4155196 117.29 25.26 121.27924 25.7174486 124.290728 29.0946176 124.29 33.11L130.64 33.11M41.15 45.14C41.1523298 43.5804824 40.3505619 42.1299232 39.0287781 41.3022831 37.7069943 40.4746431 36.0519276 40.386846 34.65 41.07 34.5397827 39.3633333 33.4757626 37.8650247 31.9007299 37.1985929 30.3256972 36.5321612 28.50941 36.811747 27.2077132 37.9210011 25.9060165 39.0302553 25.3418536 40.7791943 25.75 42.44L25.61 42.44C24.4050874 42.4426334 23.2508694 42.9251885 22.4026271 43.7809374 21.5543848 44.6366863 21.0820175 45.795111 21.09 47L15.09 47" stroke-linecap="round" stroke-linejoin="round"/>
      </g>
      <g transform="translate(420)">
        <rect width="132" height="132" opacity=".5"/>
        <path fill="#CCCCFF" d="M118.6 69.73C117 64.5 102.93 64.79 105.39 71 107.53 76.39 120.72 76.52 118.6 69.74L118.6 69.73zM7.89 84C12.14 87.46 23.69 79.49 18.22 75.66 13.47 72.35 2.38 79.51 7.89 84zM6.78 98.12C8.43 99.47 12.93 96.36 10.78 94.88 8.93 93.59 4.62 96.37 6.78 98.12zM128.21 61C127.83 59 122.46 58.41 123.11 60.83 123.67 62.93 128.71 63.62 128.21 61zM125.72 75.81C125.92 77.81 131.22 78.9 130.79 76.43 130.42 74.28 125.46 73.15 125.72 75.81zM1.07 71.29C2.45 72.81 7.33 70.47 5.5 68.75 3.92 67.26-.73 69.32 1.07 71.29z"/>
        <path fill="#CCCCFF" fill-rule="nonzero" d="M131.28,42.24 C127.28,20.39 65.45,25.93 44.56,29.65 C25.93,33 0.36,44.37 6.94,58.29 C12.51,70 32.77,60.71 33.26,73.72 C33.61,83.19 14.26,83.03 18.14,96.38 C23.48,114.59 54.29,102.38 67.48,102.05 C80.67,101.72 111.48,112.49 116.83,95.24 C121.93,78.69 94,82.92 94,70 C94,57.08 133.12,52.31 131.28,42.24 Z"/>
        <path fill="#FFFFFF" fill-rule="nonzero" stroke="#3A4759" stroke-width="2" d="M81.43,100.35 L30.6,100.35 L26.6,88.85 L71.43,88.85 C76.9528475,88.85 81.43,93.3271525 81.43,98.85 L81.43,100.35 Z" stroke-linecap="round" stroke-linejoin="round"/>
        <path fill="#E6E6E6" fill-rule="nonzero" stroke="#3A4759" stroke-width="2" d="M61,83 L50,83 C49.6478276,83.0036575 49.3028656,83.1002468 49,83.28 L39.47,88.88 L63,88.88 L63,85 C63,83.8954305 62.1045695,83 61,83 Z" stroke-linecap="round" stroke-linejoin="round"/>
        <path fill="#FFFFFF" fill-rule="nonzero" stroke="#3A4759" stroke-width="2" d="M57,47.22 C57,47.22 38.7,54.91 38.7,78.81 L57,78.81" stroke-linecap="round" stroke-linejoin="round"/>
        <path fill="#E6E6E6" fill-rule="nonzero" stroke="#3A4759" stroke-width="2" d="M57,47.22 C57,47.22 57,62.47 75.25,75.85 L57,75.85" stroke-linecap="round" stroke-linejoin="round"/>
        <path stroke="#3A4759" stroke-width="2" d="M57.03,82.98 L57.03,47.22" stroke-linecap="round" stroke-linejoin="round"/>
        <circle cx="37.24" cy="94.6" r="2.29" stroke="#3A4759" stroke-linecap="round" stroke-linejoin="round"/>
        <circle cx="45.82" cy="94.6" r="2.29" stroke="#3A4759" stroke-linecap="round" stroke-linejoin="round"/>
        <circle cx="54.39" cy="94.6" r="2.29" stroke="#3A4759" stroke-linecap="round" stroke-linejoin="round"/>
        <path fill="#FFFFFF" fill-rule="nonzero" stroke="#3A4759" stroke-width="2" d="M111,29.9 C113.68,29.9 115.85,30.98 115.85,32.32 C115.85,33.66 113.68,34.74 111,34.74" stroke-linecap="round" stroke-linejoin="round"/>
        <path fill="#E6E6E6" fill-rule="nonzero" stroke="#3A4759" stroke-width="2" d="M104.62,23.51 L109,23.51 C110.104569,23.51 111,24.4054305 111,25.51 L111,39.64 C111,40.7445695 110.104569,41.64 109,41.64 L104.58,41.64 L104.58,23.51 L104.62,23.51 Z" stroke-linecap="round" stroke-linejoin="round"/>
        <path fill="#FFFFFF" fill-rule="nonzero" stroke="#3A4759" stroke-width="2" d="M99.27,40.32 L84.93,40.32 C69.49,40.32 53.93,31.67 53.93,31.67 C53.2387723,31.4771373 52.7605095,30.8476291 52.76,30.13 L52.76,25.88 C52.7589285,25.2525695 53.1246819,24.6824181 53.6954311,24.4218119 C54.2661803,24.1612057 54.9365765,24.2582472 55.41,24.67 L57.47,26.46 C57.7871909,26.7360677 58.2003113,26.8761694 58.62,26.85 L88.94,25 C89.9203409,24.9582704 90.8805364,25.2866644 91.63,25.92 C92.669595,26.6219411 93.9067109,26.9723988 95.16,26.92 C96.4893737,27.0029233 97.8037864,26.6014946 98.86,25.79 C99.3618179,25.2460986 100.06041,24.9256106 100.8,24.9 L104.63,24.9 L104.63,40.32 L99.27,40.32" stroke-linecap="round" stroke-linejoin="round"/>
        <path fill="#E6E6E6" fill-rule="nonzero" d="M104.62 40.32L99.27 40.32M103.77 40.32L84.93 40.32C69.49 40.32 53.93 31.67 53.93 31.67 53.24 31.48 52.76 27.88 52.76 27.16 52.76 27.16 62.22 34.16 79.68 35.85 97.14 37.54 103.75 36.03 103.75 36.03L103.77 40.32z"/>
        <path stroke="#3A4759" stroke-width="2" d="M99.27 40.32L84.93 40.32C69.49 40.32 53.93 31.67 53.93 31.67 53.2387723 31.4771373 52.7605095 30.8476291 52.76 30.13L52.76 25.88C52.7589285 25.2525695 53.1246819 24.6824181 53.6954311 24.4218119 54.2661803 24.1612057 54.9365765 24.2582472 55.41 24.67L57.47 26.46C57.7871909 26.7360677 58.2003113 26.8761694 58.62 26.85L88.94 25C89.9203409 24.9582704 90.8805364 25.2866644 91.63 25.92 92.669595 26.6219411 93.9067109 26.9723988 95.16 26.92 96.4893737 27.0029233 97.8037864 26.6014946 98.86 25.79 99.3618179 25.2460986 100.06041 24.9256106 100.8 24.9L104.63 24.9 104.63 40.32 99.27 40.32M115.89 25.75L115.89 38.89" stroke-linecap="round" stroke-linejoin="round"/>
        <polyline stroke="#3A4759" stroke-width="2" points="84.01 30.3 92.25 13.92 94.55 33.94 102.47 13.92" stroke-linecap="round" stroke-linejoin="round"/>
        <path fill="#FFFFFF" fill-rule="nonzero" stroke="#3A4759" stroke-width="2" d="M81.37,15.51 L104,15.51 C105.237118,15.51 106.24,14.5071178 106.24,13.27 L106.24,13.27 C106.241107,12.5819935 105.92598,11.9316421 105.385326,11.5061454 C104.844672,11.0806488 104.138471,10.9272117 103.47,11.09 L81.37,15.51 Z" stroke-linecap="round" stroke-linejoin="round"/>
        <polyline stroke="#3A4759" stroke-width="2" points="91.34 40.32 98.24 47.87 98.24 40.32" stroke-linecap="round" stroke-linejoin="round"/>
        <circle cx="98.24" cy="47.87" r="3.34" fill="#FFFFFF" fill-rule="nonzero" stroke="#3A4759" stroke-width="2" stroke-linecap="round" stroke-linejoin="round"/>
        <circle cx="98.24" cy="47.87" r="1.35" fill="#3A4759" fill-rule="nonzero"/>
        <path stroke="#3A4759" stroke-width="2" d="M92.76 72.67C92.7577844 71.0319117 93.7871436 69.5698624 95.3300553 69.0196246 96.8729671 68.4693868 98.595182 68.9501614 99.63 70.22 100.106433 68.7272298 101.436013 67.6690768 102.997632 67.5398545 104.55925 67.4106322 106.044678 68.2358463 106.76 69.63 108.720246 69.8491611 110.20202 71.5075418 110.2 73.48L114.79 73.48M35.81 40.06C35.81 37.56 33.51 35.53 30.67 35.53 29.8998979 35.5301692 29.1378443 35.6866623 28.43 35.99 28.1036197 33.4420153 25.8649089 31.578605 23.3 31.72 20.46 31.72 18.16 33.72 18.16 36.25 18.16 36.6290283 18.2138721 37.0061328 18.32 37.37L18.16 37.37C15.32 37.37 13.02 39.37 13.02 41.9L6.22 41.9M26.6 105C28.88 105 28.88 107 31.16 107 33.44 107 33.44 105 35.73 105 38.02 105 38.01 107 40.29 107 42.57 107 42.57 105 44.86 105 47.15 105 47.14 107 49.43 107 51.72 107 51.71 105 54 105 56.29 105 56.28 107 58.57 107 60.86 107 60.85 105 63.14 105 65.43 105 65.42 107 67.71 107 70 107 70 105 72.28 105 74.56 105 74.57 107 76.86 107 79.15 107 79.15 105 81.44 105" stroke-linecap="round" stroke-linejoin="round"/>
      </g>
    </g>
  </g>
</svg>
